<svg xmlns="http://www.w3.org/2000/svg" viewBox="0 0 750 500"><g id="freepik--Bus--inject-2"><path d="M590.37,417.59l-54.57-7.44s-5-27.64-19.84-37.21-42.52-14.52-50,1.42-5,27.28-5,27.28l-230.3-14.53s-6.38-22-22-25.86-18.6,2-23.83,9.67-6.94,24.2-6.94,24.2l-38,1.21v14.52h35.43l1.77,22s-.7,1.42,3.55,1.42h70.15l5.32-9.21,11.33.35a33.84,33.84,0,0,0,8.86,4.61c4.61,1.41,11.34,1.41,11.34,1.41l124.72-.7,52,1.08c.77,4.11,2.64,13.32,4.18,14.2,2,1.13,17,0,17,0l1.54-13.73,44.35.93L533,442,590.72,441l1.42,3.54,25.86.36V417.59Z" style="fill:#263238;stroke:#263238;stroke-linecap:round;stroke-linejoin:round"></path><path d="M237.08,377.9H222V389c-3.9,6.93-6.32,16.52-6.32,27.13s2.42,20.2,6.32,27.13v11.13h15.12c11.83,0,21.43-17.13,21.43-38.26S248.91,377.9,237.08,377.9Z" style="fill:#263238;stroke:#263238;stroke-linecap:round;stroke-linejoin:round"></path><ellipse cx="221.96" cy="416.17" rx="21.44" ry="38.27" style="fill:#263238;stroke:#263238;stroke-linecap:round;stroke-linejoin:round"></ellipse><ellipse cx="221.96" cy="416.17" rx="12.53" ry="22.37" style="fill:#fff;stroke:#263238;stroke-linecap:round;stroke-linejoin:round"></ellipse><path d="M219.71,377.9H204.6V389c-3.9,6.93-6.32,16.52-6.32,27.13s2.42,20.2,6.32,27.13v11.13h15.11c11.84,0,21.44-17.13,21.44-38.26S231.55,377.9,219.71,377.9Z" style="fill:#263238;stroke:#263238;stroke-linecap:round;stroke-linejoin:round"></path><ellipse cx="204.6" cy="416.17" rx="21.44" ry="38.27" style="fill:#616161;stroke:#263238;stroke-linecap:round;stroke-linejoin:round"></ellipse><ellipse cx="204.6" cy="416.17" rx="12.53" ry="22.37" style="fill:#fff;stroke:#263238;stroke-linecap:round;stroke-linejoin:round"></ellipse><path d="M354.35,371.82H339.24c-.38,0-.75,0-1.12.05s-.75-.05-1.13-.05H321.88c-11.84,0-21.44,17.13-21.44,38.26s9.6,38.27,21.44,38.27H337c.38,0,.75,0,1.13-.05s.74.05,1.12.05h15.11c11.84,0,21.44-17.13,21.44-38.27S366.19,371.82,354.35,371.82Z" style="fill:#263238;stroke:#263238;stroke-linecap:round;stroke-linejoin:round"></path><path d="M513.52,220.08s-360.62,11.1-382.81,14.66S87.91,241.48,82.76,253s-5.15,145.84-5.15,145.84l105.81,3.11s3.17-34.82,19-36.8S226.22,404,226.22,404l180,5.52L410,437.17l6.2,1.28h39.82V263.24s4.33-21.31,19.45-28.63,47-11.35,47-11.35Z" style="fill:#0077FF;stroke:#263238;stroke-linecap:round;stroke-linejoin:round"></path><line x1="412.72" y1="412.43" x2="445.98" y2="412.43" style="fill:none;stroke:#263238;stroke-linecap:round;stroke-linejoin:round"></line><line x1="411.8" y1="426.77" x2="445.07" y2="426.77" style="fill:none;stroke:#263238;stroke-linecap:round;stroke-linejoin:round"></line><rect x="407.41" y="253.73" width="60.35" height="144.14" style="fill:#616161;stroke:#263238;stroke-linecap:round;stroke-linejoin:round"></rect><path d="M80.67,266.85,458.34,255.8c2.63-6.87,7.85-16.68,17.16-21.19,15.13-7.33,47-11.35,47-11.35l-9-3.18s-360.62,11.1-382.81,14.66S87.91,241.48,82.76,253C81.94,254.81,81.25,259.79,80.67,266.85Z" style="fill:#fff;stroke:#263238;stroke-linecap:round;stroke-linejoin:round"></path><path d="M515.58,383.6H499.14v12.11c-4.24,7.54-6.87,18-6.87,29.51s2.63,22,6.87,29.51v12.11h16.44c12.88,0,23.32-18.64,23.32-41.62S528.46,383.6,515.58,383.6Z" style="fill:#263238;stroke:#263238;stroke-linecap:round;stroke-linejoin:round"></path><ellipse cx="499.14" cy="425.22" rx="23.31" ry="41.62" style="fill:#616161;stroke:#263238;stroke-linecap:round;stroke-linejoin:round"></ellipse><ellipse cx="499.14" cy="425.22" rx="13.63" ry="24.33" style="fill:#fff;stroke:#263238;stroke-linecap:round;stroke-linejoin:round"></ellipse><path d="M646.09,377.51H629.66v12.11c-4.25,7.54-6.88,18-6.88,29.51s2.63,22,6.88,29.51v12.11h16.43c12.88,0,23.32-18.63,23.32-41.62S659,377.51,646.09,377.51Z" style="fill:#263238;stroke:#263238;stroke-linecap:round;stroke-linejoin:round"></path><ellipse cx="629.66" cy="419.13" rx="23.31" ry="41.62" style="fill:#263238;stroke:#263238;stroke-linecap:round;stroke-linejoin:round"></ellipse><ellipse cx="629.66" cy="419.13" rx="13.63" ry="24.33" style="fill:#263238;stroke:#263238;stroke-linecap:round;stroke-linejoin:round"></ellipse><path d="M505.42,220.91s-23.38,2.6-36.37,10.39-12.29,22.44-13,27.64,0,179.51,0,179.51l3.07-1.18h6.62s-3.31-38,7.32-54.33,27.87-14.64,34.49-9.45,8,13,12.51,24.09,7.09,22.68,12.52,23.62,87.16,4.26,110.07,1.42,29.05-4.49,31.18-7.08,5-23.86,4.25-26.22a7.87,7.87,0,0,0-2.12-3.55s0-13.69-1.89-16.53-20.08-15.12-20.79-17a34.24,34.24,0,0,0-8.5-14.17c-5.91-5.67-16.06-11.1-16.06-11.1s-3.07-4.72-5.67-5.43c0,0-.48-4-1.66-4.49s-4-1.89-4-1.89V253.27s1.65-13.23-13-21.73-43.23-12.76-57.87-13S521.48,218.31,505.42,220.91Z" style="fill:#0077FF;stroke:#263238;stroke-linecap:round;stroke-linejoin:round"></path><path d="M470.68,256.48H616.26a0,0,0,0,1,0,0V316a0,0,0,0,1,0,0H470.68a11.59,11.59,0,0,1-11.59-11.59V268.07A11.59,11.59,0,0,1,470.68,256.48Z" style="fill:#616161;stroke:#263238;stroke-linecap:round;stroke-linejoin:round"></path><rect x="496.37" y="266.87" width="24.73" height="29.36" style="fill:#fff"></rect><rect x="525.73" y="267.39" width="32.97" height="32.45" style="fill:#fff"></rect><rect x="573.38" y="267.13" width="39.92" height="46.11" style="fill:#fff"></rect><rect x="467.26" y="267.13" width="23.44" height="27.05" style="fill:#fff"></rect><path d="M516.09,312.64s1.28-21.31,6-24.4,14-3.41,18.32-1c1.54.86,5.7,24.6,5.7,24.6Z" style="fill:#263238;stroke:#263238;stroke-linecap:round;stroke-linejoin:round"></path><path d="M535.59,294s-7.25,2.66-9.7,5.65-3.51,11.08-3.51,11.08H564s-1.71-10.55-5.12-13.11-10.23-3.94-11.82-3.41-5,.11-5,.11Z" style="fill:#0077FF;stroke:#263238;stroke-linecap:round;stroke-linejoin:round"></path><path d="M537.11,292.72s-.74-.66-1.52,1.27.41,5.65.41,6.25,5.36-2.53,5.36-2.53l4.91,3s4.17-3,4.31-5.51-3.86-3.27-3.86-3.27Z" style="fill:#fff;stroke:#263238;stroke-linecap:round;stroke-linejoin:round"></path><line x1="554.77" y1="306.46" x2="555.75" y2="308.5" style="fill:none;stroke:#263238;stroke-linecap:round;stroke-linejoin:round;stroke-width:0.75px"></line><line x1="531.47" y1="308.5" x2="530.63" y2="305.79" style="fill:none;stroke:#263238;stroke-linecap:round;stroke-linejoin:round;stroke-width:0.75px"></line><line x1="553.2" y1="300.36" x2="553.6" y2="302.3" style="fill:none;stroke:#263238;stroke-linecap:round;stroke-linejoin:round;stroke-width:0.75px"></line><path d="M545,276s3.1.56,3.88,2.77a17.28,17.28,0,0,1,.55,5.55s1-.45,1,1.44-.11,3.1-.78,3.43-1.44.67-1.44.67a27.68,27.68,0,0,1,.22,4.88c-.22,1.1-6.76,4.65-7.87,5s-3.1-5-3.1-5.32a14.55,14.55,0,0,0-.33-1.66,6.58,6.58,0,0,1-1.44-3.44c-.11-1.88.77-9.86,1.66-11.52S543.31,274.65,545,276Z" style="fill:#fff;stroke:#263238;stroke-linecap:round;stroke-linejoin:round"></path><path d="M537.51,277.49c1.25-1.54,5.89-2.77,7.47-1.51,0,0,3.1.56,3.88,2.77a17.28,17.28,0,0,1,.55,5.55s-1.22,1.11-1.66.66,0-1.66-.33-2.1-1.33-.89-1.45-2,.45-1.22,0-2-2.66-1.22-4.54-1.11A11.64,11.64,0,0,1,537.51,277.49Z" style="fill:#263238;stroke:#263238;stroke-linecap:round;stroke-linejoin:round"></path><path d="M542.32,284.13c0,.46.27.83.61.83s.61-.37.61-.83-.28-.83-.61-.83S542.32,283.67,542.32,284.13Z" style="fill:#263238"></path><path d="M537.77,284.3c0,.46.28.83.61.83s.61-.37.61-.83-.27-.83-.61-.83S537.77,283.84,537.77,284.3Z" style="fill:#263238"></path><path d="M544,283a4.79,4.79,0,0,0-2.77-.34" style="fill:none;stroke:#263238;stroke-linecap:round;stroke-linejoin:round;stroke-width:0.75px"></path><path d="M539.21,282.63a2.43,2.43,0,0,0-2,.12" style="fill:none;stroke:#263238;stroke-linecap:round;stroke-linejoin:round;stroke-width:0.75px"></path><path d="M539.1,286.18a1.05,1.05,0,0,0,.34,1.55,2.36,2.36,0,0,0,1.88.22" style="fill:none;stroke:#263238;stroke-linecap:round;stroke-linejoin:round;stroke-width:0.75px"></path><path d="M538,289.28s4.11,1.67,5.21-.11" style="fill:none;stroke:#263238;stroke-linecap:round;stroke-linejoin:round;stroke-width:0.75px"></path><path d="M537.11,292.72a7.3,7.3,0,0,0,3.88,1.22,7.57,7.57,0,0,0,3.32-.33L538,295.94A31.81,31.81,0,0,0,537.11,292.72Z" style="fill:#263238;stroke:#263238;stroke-linecap:round;stroke-linejoin:round"></path><path d="M552.53,303.69a14.14,14.14,0,0,0-2.45,1.27c-.21.32-.64,1.18.53,1.39a10.5,10.5,0,0,0,3.41-.43Z" style="fill:#fff;stroke:#263238;stroke-linecap:round;stroke-linejoin:round"></path><path d="M574.78,313.57H550.24a1,1,0,0,1-1-.94c-.46-4.76,4.76-9.56,12.14-11.17,7.83-1.7,14.81.85,15.88,5.8a7.11,7.11,0,0,1-1.62,5.9A1,1,0,0,1,574.78,313.57Zm-23.48-2.08h22.94a4.92,4.92,0,0,0,.94-3.79c-.8-3.68-6.93-5.6-13.4-4.2C556.18,304.72,551.76,308.16,551.3,311.49Z" style="fill:#263238"></path><path d="M553.6,302.3s-1.5.43-1.07,1.39,1,2.77,2.24,2.77-.32-3.63-.32-3.63S554.45,302.73,553.6,302.3Z" style="fill:#fff;stroke:#263238;stroke-linecap:round;stroke-linejoin:round"></path><path d="M555.73,301.34s-1.49.43-1.07,1.39,1,2.77,2.24,2.77-.32-3.63-.32-3.63S556.58,301.77,555.73,301.34Z" style="fill:#fff;stroke:#263238;stroke-linecap:round;stroke-linejoin:round"></path><path d="M558,301.23s-1.35.38-1,1.24.86,2.49,2,2.49-.29-3.25-.29-3.25S558.72,301.61,558,301.23Z" style="fill:#fff;stroke:#263238;stroke-linecap:round;stroke-linejoin:round"></path><path d="M471.17,316H616.26v-1.63c-2.73-1.82-5.91-3.65-8.22-4.09-4.91-.94-17.8-1.64-17.8-1.64a53.8,53.8,0,0,0-16.16-3.28c-8.43-.24-19.9,4-19.9,4s-14.52.47-19,0-18.51,2.34-18.51,2.34l-55.11-.43A12,12,0,0,0,471.17,316Z" style="fill:#263238;stroke:#263238;stroke-linecap:round;stroke-linejoin:round"></path><path d="M665.29,373.4h9.93a12.09,12.09,0,0,0-1.15-4.16c-.92-1.37-5.62-4.93-10.33-8.47-2.82,0-5.78.19-4.62,1.18,2,1.76,7.19,5,7.78,7.49A3.91,3.91,0,0,1,665.29,373.4Z" style="fill:#263238;stroke:#263238;stroke-linecap:round;stroke-linejoin:round"></path><polygon points="663.67 362.68 664.7 360.04 663.67 359.01 663.67 356.95 668.22 356.95 668.22 358.86 667.63 359.89 669.69 367.38 663.67 362.68" style="fill:#263238;stroke:#263238;stroke-linecap:round;stroke-linejoin:round"></polygon><path d="M666,359.61a1,1,0,0,1-1-1V339.63a5.76,5.76,0,0,1,5.75-5.75H698a3.31,3.31,0,0,0,3.31-3.31v-6.23a1,1,0,0,1,2.08,0v6.23A5.39,5.39,0,0,1,698,336H670.73a3.68,3.68,0,0,0-3.67,3.67v18.94A1,1,0,0,1,666,359.61Z" style="fill:#263238"></path><path d="M696.13,312.15l3.53,13.22h5.43s.29-11.31-.44-12S700.24,312.3,696.13,312.15Z" style="fill:#263238;stroke:#263238;stroke-linecap:round;stroke-linejoin:round"></path><path d="M696.13,312.15s-4.41.44-4.7,2.2,2.35,6.32,3.67,7.94,4.56,3.08,4.56,3.08Z" style="fill:#fff;stroke:#263238;stroke-linecap:round;stroke-linejoin:round"></path><path d="M627.72,384.29h.5c.41-12.78-1.07-31-1.69-37.86a1,1,0,0,0-.33.06,4.64,4.64,0,0,0-1.38,1.2C625.9,355.84,628.18,374.53,627.72,384.29Z" style="fill:#263238"></path><path d="M590.41,381.94l1.27.27c-1.76-11.86-6.19-27.4-8.3-34.43-.5.08-1,.17-1.35.26C584.16,354.86,588.33,369.08,590.41,381.94Z" style="fill:#263238"></path><path d="M642.72,384.17c1.54-13.53,1.53-30.17,1.46-36.32l-1.14-.13a289.69,289.69,0,0,1-.7,36.47Z" style="fill:#263238"></path><path d="M587,347.36c-.54.05-1,.09-1.55.15,2.2,7.36,6.68,23.16,8.37,35.05l.58.08C592.34,368.74,588.59,353.51,587,347.36Z" style="fill:#263238"></path><path d="M634.11,384.31c1.17-14.51.15-31.46-.29-37.49l-1.72-.14a365.89,365.89,0,0,1,1.28,37.63Z" style="fill:#263238"></path><path d="M630.3,384.3h1A361.6,361.6,0,0,0,630,346.52l-1.37-.08C629.26,353.51,630.71,371.52,630.3,384.3Z" style="fill:#263238"></path><path d="M640.24,384.27a287.15,287.15,0,0,0,.7-36.76l-1.52-.16c.44,6.42,1.41,23.43.32,36.93Z" style="fill:#263238"></path><path d="M644.83,384c.42-.06.79-.12,1.14-.19a224.2,224.2,0,0,0,1.3-35.62l-1-.1C646.33,354.38,646.32,370.59,644.83,384Z" style="fill:#263238"></path><path d="M591,347.1l-1.84.11c1.66,6.5,5.4,21.82,7.44,35.7l2,.21A336.7,336.7,0,0,0,591,347.1Z" style="fill:#263238"></path><path d="M637.65,384.31c1.12-13.65.09-31.07-.34-37.16l-1.39-.14c.46,6.34,1.42,22.95.28,37.3Z" style="fill:#263238"></path><path d="M620.27,352.74a7.69,7.69,0,0,1-.87.66c.91,7.2,2.37,20.11,2.74,30.87h.66C622.31,374.12,621,359.9,620.27,352.74Z" style="fill:#263238"></path><path d="M615.09,352.52c-.43-.27-.87-.56-1.32-.88,1,7.71,2.61,21.77,3.08,32.53l1.12,0C617.56,372.89,616,359.21,615.09,352.52Z" style="fill:#263238"></path><path d="M580.12,348.9c-2.24,3.26,5.55,30.09,7.72,32.07a1.88,1.88,0,0,0,.33.23A268.86,268.86,0,0,0,580.12,348.9Z" style="fill:#263238"></path><path d="M651.09,352.2c-.67-2.69-1.25-3.51-1.72-3.76A226.76,226.76,0,0,1,648.16,383a3.77,3.77,0,0,0,.72-.57C650.91,380.23,652,355.89,651.09,352.2Z" style="fill:#263238"></path><path d="M595.11,347l-2,.06a331.57,331.57,0,0,1,7.62,36.3l.73.06C600.39,368.61,596.53,352.51,595.11,347Z" style="fill:#263238"></path><path d="M623,349.82c-.27.33-.55.65-.82,1,.64,6.35,2.19,22.37,2.71,33.5h.75C626.07,375.51,624.13,358.68,623,349.82Z" style="fill:#263238"></path><path d="M611.45,349.92c-.8-.63-1.53-1.22-2.13-1.73,1.44,7.91,4.16,23.91,5,35.9l.47,0C614.24,372.43,612.35,356.88,611.45,349.92Z" style="fill:#263238"></path><path d="M603.27,346.83h-2a309,309,0,0,1,6.18,36.94l.92.05C607.78,369.1,604.83,353.94,603.27,346.83Z" style="fill:#263238"></path><path d="M599.08,346.86l-1.83,0c1.53,6.06,5.28,22,6.3,36.63l1.74.12A307.94,307.94,0,0,0,599.08,346.86Z" style="fill:#263238"></path><path d="M607,346.85h-1.54c1.6,7.38,4.48,22.46,5,37.09l1.8.08C611.3,371.19,608.25,353.84,607,346.85Z" style="fill:#263238"></path><path d="M527.17,371s-1.11,2.58,1.47,5.35,10.15,7,22.5,10,24.71,3.13,25.08,1.47-6.82-11.8-9-12.54-3.4-1.06-3.4-1.06S537.31,374.15,527.17,371Z" style="fill:#fff;stroke:#263238;stroke-linecap:round;stroke-linejoin:round"></path><path d="M665.29,373.4s-3.13.93-3.5,2.59-1.85,11.8-1.85,11.8,11.74.58,16-2a35.48,35.48,0,0,0-.74-12.37Z" style="fill:#fff;stroke:#263238;stroke-linecap:round;stroke-linejoin:round"></path><path d="M676.41,386.24a17.1,17.1,0,0,1-4.85,3.4c-4.79,2.4-47.58,3.5-93.5,1.66-39.3-1.58-57.38-3.29-61.77-3.75,1.12,3,2.27,6.33,3.77,10,4.49,11.11,7.09,22.68,12.52,23.62s87.16,4.26,110.07,1.42,29.05-4.49,31.18-7.08,5-23.86,4.25-26.22A8.26,8.26,0,0,0,676.41,386.24Z" style="fill:#263238;stroke:#263238;stroke-linecap:round;stroke-linejoin:round"></path><rect x="618.31" y="265.13" width="10.51" height="19.57" rx="2.77" style="fill:#263238;stroke:#263238;stroke-linecap:round;stroke-linejoin:round"></rect><rect x="618.31" y="289.23" width="10.51" height="19.57" rx="2.77" style="fill:#263238;stroke:#263238;stroke-linecap:round;stroke-linejoin:round"></rect><rect x="464.44" y="268.01" width="19.36" height="22.13" rx="2.77" style="fill:#263238;stroke:#263238;stroke-linecap:round;stroke-linejoin:round"></rect><rect x="464.44" y="292.18" width="19.36" height="22.13" rx="2.77" style="fill:#263238;stroke:#263238;stroke-linecap:round;stroke-linejoin:round"></rect><path d="M455.38,266.36h26.46a3.41,3.41,0,0,1,3.41,3.41v45.1a3.41,3.41,0,0,1-3.41,3.4H452.91" style="fill:none;stroke:#263238;stroke-linecap:round;stroke-linejoin:round;stroke-width:2px"></path><path d="M559.81,354a62.77,62.77,0,0,1,8.14,3.74" style="fill:none;stroke:#263238;stroke-linecap:round;stroke-linejoin:round"></path><path d="M468.9,340.18h13.51s44.59,2.93,72.67,12.13" style="fill:none;stroke:#263238;stroke-linecap:round;stroke-linejoin:round"></path><path d="M484.22,329.19a6.5,6.5,0,1,1-6.49-6.8A6.66,6.66,0,0,1,484.22,329.19Z" style="fill:#fff;stroke:#263238;stroke-linecap:round;stroke-linejoin:round"></path><path d="M478.26,322.42a6.83,6.83,0,1,0,6,6.77A6.68,6.68,0,0,0,478.26,322.42Z" style="fill:#fff;stroke:#263238;stroke-linecap:round;stroke-linejoin:round"></path><path d="M509.88,352.39a95.84,95.84,0,0,1,21.56,2.72c11.9,2.83,33.69,11.91,37.93,15.34" style="fill:none;stroke:#263238;stroke-linecap:round;stroke-linejoin:round"></path><path d="M470.11,383.16s3.83-18,17.15-25.63a39.52,39.52,0,0,1,14.65-4.65" style="fill:none;stroke:#263238;stroke-linecap:round;stroke-linejoin:round"></path><path d="M506.2,320.86c29.88-1.48,94-1.26,101.5,1,9.48,2.83,18.76,4.85,18.76,4.85" style="fill:none;stroke:#263238;stroke-linecap:round;stroke-linejoin:round"></path><path d="M478.73,356.69c.55-3.86,1.3-8.72,1.87-10.86a42.65,42.65,0,0,1,1.81-5.65s2.83-14.72,8.88-17.75c.93-.47,4.11-.87,8.86-1.21" style="fill:none;stroke:#263238;stroke-linecap:round;stroke-linejoin:round"></path><path d="M478,362.17s.16-1.28.42-3.15" style="fill:none;stroke:#263238;stroke-linecap:round;stroke-linejoin:round"></path><path d="M612.41,332.34a31.83,31.83,0,0,1,2.75,3.2" style="fill:none;stroke:#263238;stroke-linecap:round;stroke-linejoin:round"></path><path d="M598,323a42.14,42.14,0,0,1,11.61,6.78" style="fill:none;stroke:#263238;stroke-linecap:round;stroke-linejoin:round"></path><path d="M524.38,370.58s9.34-2,11.73-4a14.22,14.22,0,0,0,3.58-5.57l1.16-1.52-.77-.67v-2.11H545v2l-1,.58a8.19,8.19,0,0,1,1.82,3,14.92,14.92,0,0,0,9.89,9.31c6.62,1.73,8.06,2.59,8.06,2.59s-14.4-.1-24.66-.86S524.38,370.58,524.38,370.58Z" style="fill:#263238;stroke:#263238;stroke-linecap:round;stroke-linejoin:round"></path><path d="M542.45,359.38a1,1,0,0,1-1-1V336.42a4.1,4.1,0,0,1,4.09-4.1h10.66a1.94,1.94,0,0,0,1.94-1.94V322a1,1,0,0,1,2.09,0v8.34a4,4,0,0,1-4,4H545.5a2,2,0,0,0-2,2v21.92A1,1,0,0,1,542.45,359.38Z" style="fill:#263238"></path><path d="M551.16,310.42s-4.65,0-5.08,1.46,1.89,9.14,4.35,10.89,15.54,2.17,17.57,1.3,5.67-9,5.23-11-2.9-2.32-3.34-2.32Z" style="fill:#263238;stroke:#263238;stroke-linecap:round;stroke-linejoin:round"></path><path d="M460.73,251.74h52.46s-3.55-25.77-5-28a12,12,0,0,0-2.78-2.81s-28.77,7.4-35.09,12.09S459.79,250.1,460.73,251.74Z" style="fill:#263238;stroke:#263238;stroke-linecap:round;stroke-linejoin:round"></path><path d="M604.39,231.54c-5.47-3.18-12.87-5.76-20.77-7.76l-.17.32a26.79,26.79,0,0,1-.7,7c-.94,4.92-5.15,22-5.15,22h39.79C617.51,251.8,618.22,239.57,604.39,231.54Z" style="fill:#263238;stroke:#263238;stroke-linecap:round;stroke-linejoin:round"></path><path d="M597.51,243.86c0,4.22-2.75,7.64-6.14,7.64s-6.13-3.42-6.13-7.64,2.74-7.64,6.13-7.64S597.51,239.64,597.51,243.86Z" style="fill:#fff;stroke:#263238;stroke-linecap:round;stroke-linejoin:round"></path><ellipse cx="604.25" cy="243.86" rx="6.13" ry="7.64" style="fill:#fff;stroke:#263238;stroke-linecap:round;stroke-linejoin:round"></ellipse><ellipse cx="487.62" cy="243.86" rx="6.13" ry="7.64" style="fill:#fff;stroke:#263238;stroke-linecap:round;stroke-linejoin:round"></ellipse><ellipse cx="500.5" cy="243.86" rx="6.13" ry="7.64" style="fill:#fff;stroke:#263238;stroke-linecap:round;stroke-linejoin:round"></ellipse><rect x="513.89" y="229.95" width="61.83" height="18.74" style="fill:#fff;stroke:#263238;stroke-linecap:round;stroke-linejoin:round"></rect><line x1="516.23" y1="252.2" x2="575.26" y2="252.2" style="fill:none;stroke:#263238;stroke-linecap:round;stroke-linejoin:round"></line><path d="M374.52,261.58l33.34-.81v55.57H374.52Zm-27.83,54.76H369V261.43l-22.27.52Zm-30.78,0h25.52V262l-25.52.76Zm-30.6,0H310V262.89l-24.66.73Zm-29.57,0h23.84V263.79l-23.84.7Zm-28.61,0H250.2V264.66l-23.07.68Zm-24.58,0h20.76V265.45l-20.76.62Zm-24.29,0h20.17V266.19l-20.17.6Zm-23.6,0h19.6V266.91l-19.6.58Zm-22.94,0h19.05V267.6l-19.05.57Zm-22.32,0h18.53V268.28l-18.53.55Zm-24.43,0h20.75v-47.4L85,269.55Z" style="fill:#969696;stroke:#263238;stroke-linecap:round;stroke-linejoin:round"></path><rect x="178.26" y="291.2" width="20.16" height="2.37" style="fill:#fff;stroke:#263238;stroke-linecap:round;stroke-linejoin:round"></rect><rect x="202.55" y="291.2" width="20.76" height="2.37" style="fill:#fff;stroke:#263238;stroke-linecap:round;stroke-linejoin:round"></rect><rect x="154.66" y="291.2" width="19.6" height="2.37" style="fill:#fff;stroke:#263238;stroke-linecap:round;stroke-linejoin:round"></rect><rect x="131.72" y="291.2" width="19.05" height="2.37" style="fill:#fff;stroke:#263238;stroke-linecap:round;stroke-linejoin:round"></rect><rect x="109.4" y="291.2" width="18.53" height="2.37" style="fill:#fff;stroke:#263238;stroke-linecap:round;stroke-linejoin:round"></rect><rect x="84.97" y="291.2" width="20.75" height="2.37" style="fill:#fff;stroke:#263238;stroke-linecap:round;stroke-linejoin:round"></rect><rect x="255.74" y="291.2" width="23.84" height="2.37" style="fill:#fff;stroke:#263238;stroke-linecap:round;stroke-linejoin:round"></rect><rect x="346.69" y="291.2" width="22.27" height="2.37" style="fill:#fff;stroke:#263238;stroke-linecap:round;stroke-linejoin:round"></rect><rect x="374.52" y="291.2" width="33.34" height="2.37" style="fill:#fff;stroke:#263238;stroke-linecap:round;stroke-linejoin:round"></rect><rect x="227.13" y="291.2" width="23.06" height="2.37" style="fill:#fff;stroke:#263238;stroke-linecap:round;stroke-linejoin:round"></rect><rect x="315.91" y="291.2" width="25.52" height="2.37" style="fill:#fff;stroke:#263238;stroke-linecap:round;stroke-linejoin:round"></rect><rect x="285.31" y="291.2" width="24.66" height="2.37" style="fill:#fff;stroke:#263238;stroke-linecap:round;stroke-linejoin:round"></rect><polygon points="409.12 354.42 78.15 351.1 78.15 345.05 409.12 345.05 409.12 354.42" style="fill:#263238;stroke:#263238;stroke-linecap:round;stroke-linejoin:round"></polygon><polygon points="409.12 326.32 78.15 326.29 78.15 320.24 409.12 320.24 409.12 326.32" style="fill:#263238;stroke:#263238;stroke-linecap:round;stroke-linejoin:round"></polygon><polygon points="184.94 370.92 78.15 369.55 78.15 376.51 184.94 378.66 184.94 370.92" style="fill:#263238;stroke:#263238;stroke-linecap:round;stroke-linejoin:round"></polygon><polygon points="223.06 371.4 223.06 379.42 409.12 383.17 409.12 373.79 223.06 371.4" style="fill:#263238;stroke:#263238;stroke-linecap:round;stroke-linejoin:round"></polygon><polygon points="229.72 396.58 229.72 404.06 406.25 409.49 408.21 408.88 408.21 401.62 229.72 396.58" style="fill:#263238;stroke:#263238;stroke-linecap:round;stroke-linejoin:round"></polygon><path d="M178,395.12l-91.08-2.58v-16H78.15l-.45.28c-.09,13.24-.09,22-.09,22L178,401.76Z" style="fill:#263238;stroke:#263238;stroke-linecap:round;stroke-linejoin:round"></path><rect x="395.05" y="263.24" width="21.18" height="175.21" transform="translate(811.28 701.69) rotate(180)" style="fill:#263238;stroke:#263238;stroke-linecap:round;stroke-linejoin:round"></rect><rect x="399.85" y="267.33" width="12" height="75.27" style="fill:#969696;stroke:#263238;stroke-linecap:round;stroke-linejoin:round"></rect><rect x="399.85" y="348.33" width="12" height="75.27" style="fill:#969696;stroke:#263238;stroke-linecap:round;stroke-linejoin:round"></rect><rect x="435.37" y="263.24" width="21.18" height="175.21" transform="translate(891.92 701.69) rotate(180)" style="fill:#263238;stroke:#263238;stroke-linecap:round;stroke-linejoin:round"></rect><rect x="440.16" y="267.33" width="12" height="75.27" style="fill:#969696;stroke:#263238;stroke-linecap:round;stroke-linejoin:round"></rect><rect x="440.16" y="348.33" width="12" height="75.27" style="fill:#969696;stroke:#263238;stroke-linecap:round;stroke-linejoin:round"></rect><path d="M519.73,243.85a2.67,2.67,0,0,1-1.39-.33,2,2,0,0,1-.85-1,4,4,0,0,1-.31-1.54l1.44-.28a4.84,4.84,0,0,0,.13.94,1.54,1.54,0,0,0,.33.64.84.84,0,0,0,.59.22.64.64,0,0,0,.58-.25,1.08,1.08,0,0,0,.17-.62,1.7,1.7,0,0,0-.27-1,4.31,4.31,0,0,0-.73-.77l-1.16-1a3.29,3.29,0,0,1-.78-.94,2.5,2.5,0,0,1-.29-1.28,2.19,2.19,0,0,1,.64-1.69,2.46,2.46,0,0,1,1.74-.59,2.64,2.64,0,0,1,1.08.2,1.72,1.72,0,0,1,.69.55,2.51,2.51,0,0,1,.38.81,4.71,4.71,0,0,1,.16,1l-1.43.25a5.51,5.51,0,0,0-.1-.78,1.15,1.15,0,0,0-.26-.53.75.75,0,0,0-.56-.19.69.69,0,0,0-.57.24,1,1,0,0,0-.2.61,1.4,1.4,0,0,0,.19.77,3.1,3.1,0,0,0,.56.62l1.15,1a5,5,0,0,1,1,1.12,2.87,2.87,0,0,1,.4,1.56,2.36,2.36,0,0,1-.29,1.17,2.17,2.17,0,0,1-.81.81A2.49,2.49,0,0,1,519.73,243.85Z" style="fill:#263238"></path><path d="M525.51,243.85a2.83,2.83,0,0,1-1.59-.4,2.1,2.1,0,0,1-.8-1.09,5.12,5.12,0,0,1-.23-1.59v-3.29a5.32,5.32,0,0,1,.23-1.64,2,2,0,0,1,.8-1.07,2.92,2.92,0,0,1,1.59-.38,2.88,2.88,0,0,1,1.5.33,1.73,1.73,0,0,1,.77.93,4,4,0,0,1,.23,1.4v.77h-1.62V237a5.08,5.08,0,0,0,0-.7.89.89,0,0,0-.22-.51.82.82,0,0,0-.61-.19.9.9,0,0,0-.63.2.91.91,0,0,0-.25.54,4.22,4.22,0,0,0-.06.75v4a3.75,3.75,0,0,0,.08.83.83.83,0,0,0,.29.49.9.9,0,0,0,.57.16.76.76,0,0,0,.6-.19,1,1,0,0,0,.22-.53,5.5,5.5,0,0,0,0-.74v-.84H528V241a4.35,4.35,0,0,1-.22,1.46,1.88,1.88,0,0,1-.76,1A2.71,2.71,0,0,1,525.51,243.85Z" style="fill:#263238"></path><path d="M529.2,243.72v-9.23h1.68v3.87h1.88v-3.87h1.68v9.23h-1.68v-4.17h-1.88v4.17Z" style="fill:#263238"></path><path d="M538.36,243.85a2.86,2.86,0,0,1-1.56-.37,2,2,0,0,1-.83-1,4.58,4.58,0,0,1-.25-1.61v-3.46a4.52,4.52,0,0,1,.25-1.6,1.93,1.93,0,0,1,.83-1,3.6,3.6,0,0,1,3.14,0,2,2,0,0,1,.83,1,4.51,4.51,0,0,1,.26,1.6v3.47a4.55,4.55,0,0,1-.26,1.6,2.12,2.12,0,0,1-.83,1A3,3,0,0,1,538.36,243.85Zm0-1.25a.79.79,0,0,0,.89-.68,3,3,0,0,0,.07-.69V237a3,3,0,0,0-.07-.7.88.88,0,0,0-.27-.48,1.12,1.12,0,0,0-1.22,0,.82.82,0,0,0-.27.48,3,3,0,0,0-.07.7v4.25a3.69,3.69,0,0,0,.06.69.85.85,0,0,0,.27.5A.89.89,0,0,0,538.36,242.6Z" style="fill:#263238"></path><path d="M544.77,243.85a2.86,2.86,0,0,1-1.56-.37,2,2,0,0,1-.83-1,4.82,4.82,0,0,1-.25-1.61v-3.46a4.76,4.76,0,0,1,.25-1.6,2,2,0,0,1,.83-1,3.6,3.6,0,0,1,3.14,0,1.93,1.93,0,0,1,.83,1,4.51,4.51,0,0,1,.26,1.6v3.47a4.55,4.55,0,0,1-.26,1.6,2.07,2.07,0,0,1-.83,1A3,3,0,0,1,544.77,243.85Zm0-1.25a.93.93,0,0,0,.63-.18.89.89,0,0,0,.26-.5,3,3,0,0,0,.07-.69V237a3,3,0,0,0-.07-.7.87.87,0,0,0-.26-.48.93.93,0,0,0-.63-.18.9.9,0,0,0-.6.18.82.82,0,0,0-.27.48,3,3,0,0,0-.07.7v4.25a3.69,3.69,0,0,0,.06.69.85.85,0,0,0,.27.5A.91.91,0,0,0,544.77,242.6Z" style="fill:#263238"></path><path d="M548.68,243.72v-9.23h1.69v8.07h2.23v1.16Z" style="fill:#263238"></path><path d="M556.2,243.72v-9.23h2.27a4.72,4.72,0,0,1,1.11.12,2.13,2.13,0,0,1,.85.38,1.74,1.74,0,0,1,.55.72,3,3,0,0,1,.2,1.15,2.47,2.47,0,0,1-.16,1,1.35,1.35,0,0,1-.45.63,1.62,1.62,0,0,1-.74.32,1.84,1.84,0,0,1,.91.38,1.61,1.61,0,0,1,.53.76,3.09,3.09,0,0,1,.18,1.12,3.81,3.81,0,0,1-.16,1.17,2.17,2.17,0,0,1-.49.84,2,2,0,0,1-.81.51,3.55,3.55,0,0,1-1.14.17Zm1.69-5.45h.57a1.62,1.62,0,0,0,.77-.15.8.8,0,0,0,.38-.46,2.37,2.37,0,0,0,.11-.77,1.45,1.45,0,0,0-.17-.76.84.84,0,0,0-.49-.37,3.26,3.26,0,0,0-.84-.09h-.33Zm0,4.27h.63a1.24,1.24,0,0,0,1-.37,2,2,0,0,0,.27-1.15,2.52,2.52,0,0,0-.13-.9.94.94,0,0,0-.43-.52,1.56,1.56,0,0,0-.8-.17h-.58Z" style="fill:#263238"></path><path d="M565.07,243.85a2.87,2.87,0,0,1-1.59-.38,2,2,0,0,1-.79-1.07,5.78,5.78,0,0,1-.21-1.66v-6.25h1.64v6.44a5.39,5.39,0,0,0,0,.82,1.18,1.18,0,0,0,.27.61.79.79,0,0,0,.63.23.81.81,0,0,0,.65-.23,1.26,1.26,0,0,0,.26-.61,5.36,5.36,0,0,0,.06-.82v-6.44h1.63v6.25a5.43,5.43,0,0,1-.22,1.66,1.9,1.9,0,0,1-.78,1.07A2.87,2.87,0,0,1,565.07,243.85Z" style="fill:#263238"></path><path d="M571.31,243.85a2.72,2.72,0,0,1-1.39-.33,2,2,0,0,1-.84-1,4.24,4.24,0,0,1-.32-1.54l1.45-.28a4.18,4.18,0,0,0,.13.94,1.34,1.34,0,0,0,.33.64.82.82,0,0,0,.59.22.65.65,0,0,0,.58-.25,1.08,1.08,0,0,0,.17-.62,1.7,1.7,0,0,0-.27-1,4.7,4.7,0,0,0-.73-.77l-1.16-1a3.5,3.5,0,0,1-.79-.94,2.61,2.61,0,0,1-.29-1.28,2.22,2.22,0,0,1,.64-1.69,2.49,2.49,0,0,1,1.74-.59,2.65,2.65,0,0,1,1.09.2,1.8,1.8,0,0,1,.69.55,2.74,2.74,0,0,1,.38.81,5.54,5.54,0,0,1,.16,1l-1.44.25a5.59,5.59,0,0,0-.09-.78,1.07,1.07,0,0,0-.27-.53.72.72,0,0,0-.55-.19.69.69,0,0,0-.57.24.9.9,0,0,0-.2.61,1.4,1.4,0,0,0,.19.77,2.82,2.82,0,0,0,.56.62l1.15,1a5,5,0,0,1,1,1.12,2.88,2.88,0,0,1,.41,1.56,2.36,2.36,0,0,1-.29,1.17,2.25,2.25,0,0,1-.81.81A2.5,2.5,0,0,1,571.31,243.85Z" style="fill:#263238"></path></g><g id="freepik--character-2--inject-2"><path d="M424.33,410.93l-4.64,18.69a13.49,13.49,0,0,0,4.51,3c2.2.64,2.2,1.54,1.81,2.32s-2.84,2.19-4.77,2.58-3.35,3-6.06,2.57-4.13-1.8-4.13-2.45,4.39-22.82,5.68-24.23S424.33,410.93,424.33,410.93Z" style="fill:#fff;stroke:#263238;stroke-linecap:round;stroke-linejoin:round"></path><path d="M424.2,432.59a13.49,13.49,0,0,1-4.51-3s-.64,2.58-1.16,2.84a60.45,60.45,0,0,1-6.68.85c-.48,2.43-.8,4.13-.8,4.3,0,.65,1.42,2.07,4.13,2.45s4.13-2.19,6.06-2.57,4.38-1.81,4.77-2.58S426.4,433.23,424.2,432.59Z" style="fill:#fff;stroke:#263238;stroke-linecap:round;stroke-linejoin:round"></path><path d="M404.87,436.07s-3.61,4.64-4.13,7.09S397,458.11,397,458.11s-4.9,6.32-5.8,8.13.77,2.83,5.54,4.64,8.25.9,9,.13a2.74,2.74,0,0,0,.13-3.23c-.65-.64-.91-.51-1.16-2.32s-.91-3.74-.65-5,9.41-19.72,9.41-22.17S404.87,436.07,404.87,436.07Z" style="fill:#fff;stroke:#263238;stroke-linecap:round;stroke-linejoin:round"></path><path d="M405.9,467.78c-.65-.64-.91-.51-1.16-2.32-.19-1.28-.56-2.61-.67-3.74l-2.43.91c-1,.38-2.32-1.55-2.83-2.84s-2.71-.39-2.71-.39l-.07,0a75.69,75.69,0,0,0-4.83,6.86c-.9,1.8.77,2.83,5.54,4.64s8.25.9,9,.13A2.74,2.74,0,0,0,405.9,467.78Z" style="fill:#fff;stroke:#263238;stroke-linecap:round;stroke-linejoin:round"></path><path d="M400.74,409.9s2.45,10.18,3.22,13.4-1.16,13.15-1.16,13.54,7.61,3,10.7,1.42S418,414.92,418,414.92s3.61.26,5.15-1.29,4.9-6.44,4.13-8.25-10.57-5.54-10.57-5.54S402.93,405,400.74,409.9Z" style="fill:#263238;stroke:#263238;stroke-linecap:round;stroke-linejoin:round"></path><path d="M415.74,367.05a6.88,6.88,0,0,1,4.47,6.88c-.13,5.41-2.45,19.08-2.71,21.27s1.16,7,1.42,8.25-5.55,4.38-8.25,4.51-9.16-1.55-10.19-2.32-.51-23.72-.51-28.49.77-8.9,1.41-9.93,4.65-3.87,7.61-2.83S415.74,367.05,415.74,367.05Z" style="fill:#fff;stroke:#263238;stroke-linecap:round;stroke-linejoin:round"></path><path d="M417.43,344.93s-3.9-1.86-7.25.37-5.2,4.46-3.9,9.29a31.06,31.06,0,0,0,2.05,6.13l-.56,2.6,9.66,3.53-.39-1.43s3.31-.92,4.41-3.22a12.35,12.35,0,0,0,.84-6.27c-.12-1.34,1.22-6.24-.36-8.3A8.71,8.71,0,0,0,417.43,344.93Z" style="fill:#fff;stroke:#263238;stroke-linecap:round;stroke-linejoin:round"></path><path d="M419.62,355.4s-1.82,2.18-1.33,3.15,1.09-.12,1.58-1.09S421,354.31,419.62,355.4Z" style="fill:#fff;stroke:#263238;stroke-linecap:round;stroke-linejoin:round"></path><path d="M421.93,347.63a8.71,8.71,0,0,0-4.5-2.7s-3.9-1.86-7.25.37-5.2,4.46-3.9,9.29a31.06,31.06,0,0,0,2.05,6.13s5,.5,6.2.14,2.18-.85,2.55-2.07,1.21-4.12,2.54-4.24.25,2.91.25,2.91a4.48,4.48,0,0,0,1.57-1.21c1.1-1.1.13-3.16,1-3.89a2.88,2.88,0,0,0,.34-.35C422.85,350.46,422.78,348.75,421.93,347.63Z" style="fill:#263238;stroke:#263238;stroke-linecap:round;stroke-linejoin:round"></path><line x1="416.59" y1="366.44" x2="417.08" y2="363.04" style="fill:#fff;stroke:#263238;stroke-linecap:round;stroke-linejoin:round"></line><path d="M415.74,367.05s-2.91-3.64-5.46-4.37-4-1.22-6.19.73-2.79,4-2.06,5.33,1.7,2.67,4.85,1.22A46.74,46.74,0,0,1,415.74,367.05Z" style="fill:#fff;stroke:#263238;stroke-linecap:round;stroke-linejoin:round"></path><path d="M407.57,406.67l10.83-14.95a14.47,14.47,0,0,1,.39,4c-.26,1-10.19,13.41-10.19,13.41Z" style="fill:#263238;stroke:#263238;stroke-linecap:round;stroke-linejoin:round"></path><path d="M392.08,412.53a31.12,31.12,0,0,1-1.33,6.77,17.39,17.39,0,0,1-1.59,3.18l2.65.8a21.56,21.56,0,0,0,2-4.25c.39-1.59,1.59-5.7,1.59-5.7Z" style="fill:#fff;stroke:#263238;stroke-linecap:round;stroke-linejoin:round"></path><path d="M398.19,412.93s-.54,2.65-.93,4.38a47.38,47.38,0,0,1-1.6,4.78l3.06.39s1.72-4.51,2-5.84,1.06-3.84,1.06-3.84Z" style="fill:#fff;stroke:#263238;stroke-linecap:round;stroke-linejoin:round"></path><path d="M415.74,367.05s-7.39,2.75-7.78,4.68.13,33.4.52,34,2.06,4-.39,5-11.6,3.48-13.8,3.61-8.12-2.84-11.21-5S377,385.79,378.69,384a32.63,32.63,0,0,0,3-4.12c.9-1.16,4.9-7,6.32-7.61s6.7-2.58,8.76-4.13,3.87-2.06,5.55-1.54,3.22,1,3.22,1S412.05,363,415.74,367.05Z" style="fill:#919191;stroke:#263238;stroke-linecap:round;stroke-linejoin:round"></path><path d="M407.88,386.05l-10,2.83s-.38-10.44-1.8-12.12c-1-1.15-5.45-3.29-8.13-4.5a9.16,9.16,0,0,0-2.2,2.16l.27.15s7.61,3.61,8.25,6.83,1.16,32.33,1.8,32.73a95.12,95.12,0,0,0,12-3.33c2.45-1,.77-4.39.39-5C408.26,405.41,408,395.2,407.88,386.05Z" style="fill:#0077FF;stroke:#263238;stroke-linecap:round;stroke-linejoin:round"></path><path d="M379.73,382.82s7.47,2.58,7.73,5.29,2.58,19.72,1.68,20.75-6.06.52-6.06.52,3.61,3,5.8,3.48,2.58-.26,2.71-1.68-.65-23.85-2.07-25a51,51,0,0,0-7.86-4.38C381,381.66,379.73,382.82,379.73,382.82Z" style="fill:#0077FF;stroke:#263238;stroke-linecap:round;stroke-linejoin:round"></path><path d="M425.11,383.6s3.5,1.52,5.3,2.5,8,3.59,8,3.59h4.08s2.94,2,3.1,2.78a2.33,2.33,0,0,1-.49,1.63l-1.47.65s-1.14,1.8-2.28,2.12-5.06-2.28-5.06-2.28-9.8-1.47-12.74-2.12-5.88-1.34-6.37-2.39-.48-4.8.66-5.78S422.58,382.23,425.11,383.6Z" style="fill:#fff;stroke:#263238;stroke-linecap:round;stroke-linejoin:round"></path><path d="M418.79,386c1.68-2.06,6.32-2.44,6.32-2.44l.14-.79-1.56-1.28-1.29-3.48s1.55-4.64,0-7.22-3.48-3-4.64-2.06c0,0-3.35,3.09-3.74,7.09s1.16,13,2.71,14.05a1.36,1.36,0,0,0,.45.17A8.24,8.24,0,0,1,418.79,386Z" style="fill:#fff;stroke:#263238;stroke-linecap:round;stroke-linejoin:round"></path></g></svg>
