<svg xmlns="http://www.w3.org/2000/svg" viewBox="0 0 500 500"><g id="freepik--line-2--inject-68"><path d="M31.56,465.06c140-.61,296.93-.62,436.88,0-139.95.62-296.93.61-436.88,0Z" style="fill:#263238"></path></g><g id="freepik--Clipboard--inject-68"><rect x="302.24" y="76.48" width="128.78" height="96.95" transform="translate(176.69 462.53) rotate(-79.46)" style="fill:#0077FF"></rect><g style="opacity:0.1"><rect x="302.24" y="76.48" width="128.78" height="96.95" transform="translate(176.69 462.53) rotate(-79.46)" style="fill:#020100"></rect></g><rect x="299.65" y="76" width="128.78" height="96.95" transform="translate(175.05 459.59) rotate(-79.46)" style="fill:#0077FF"></rect><rect x="307.05" y="81.16" width="116.02" height="85.59" transform="translate(180.69 462.55) rotate(-80.19)" style="fill:#ebebeb"></rect><rect x="305.75" y="80.92" width="116.02" height="85.59" transform="translate(168.39 454.57) rotate(-78.22)" style="fill:#dbdbdb"></rect><rect x="305.75" y="80.92" width="116.02" height="85.59" transform="translate(175.57 458.7) rotate(-79.46)" style="fill:#fff"></rect><path d="M344.56,96.89c-2.37-.29-6.76-.92-9.13-1.29.47-3,1-6.08,1.57-9.1l.09-.5.49.1c3,.57,6.05,1.15,9.06,1.81-.51,2.34-1.5,6.67-2.08,9Zm0,0c.28-2.19.9-6.58,1.24-8.76l.31.45c-2.92-.45-5.81-1-8.71-1.5l.58-.4c-.55,2.89-1.1,5.79-1.73,8.67l-.31-.45c2.15.47,6.48,1.47,8.62,2Z" style="fill:#c7c7c7"></path><path d="M350.52,90.55a92.6,92.6,0,0,1,19.16,3.57,92.36,92.36,0,0,1-19.16-3.57Z" style="fill:#c7c7c7"></path><path d="M350.13,92.64c17,2.49,34.06,5.66,50.84,9.47-17-2.49-34.06-5.66-50.84-9.47Z" style="fill:#c7c7c7"></path><path d="M337.4,90.6c.28.33.53.66.78,1l.73,1c.48.69.93,1.39,1.37,2.1l-1-.12a41.78,41.78,0,0,1,3.59-4.25c.65-.66,1.32-1.3,2-1.92a21.09,21.09,0,0,1,2.24-1.72,21.51,21.51,0,0,1-1.45,2.42c-.53.77-1.09,1.51-1.67,2.23a40.49,40.49,0,0,1-3.8,4.06l-.68.63-.33-.75c-.33-.77-.66-1.54-1-2.32-.14-.39-.3-.78-.43-1.18S337.52,91,337.4,90.6Z" style="fill:#263238"></path><path d="M341.53,113.17c-2.37-.3-6.76-.92-9.12-1.3.46-3,1-6.07,1.56-9.1l.09-.49.49.09c3,.58,6.05,1.16,9.06,1.82-.51,2.34-1.5,6.66-2.08,9Zm0,0c.28-2.19.9-6.58,1.24-8.76l.31.45c-2.92-.45-5.81-1-8.71-1.5l.58-.4c-.55,2.89-1.1,5.78-1.73,8.66l-.31-.44c2.15.46,6.48,1.47,8.62,2Z" style="fill:#c7c7c7"></path><path d="M347.49,106.83a92,92,0,0,1,19.16,3.57,92.36,92.36,0,0,1-19.16-3.57Z" style="fill:#c7c7c7"></path><path d="M347.1,108.92c17,2.49,34.06,5.66,50.85,9.47-17-2.49-34.07-5.66-50.85-9.47Z" style="fill:#c7c7c7"></path><path d="M334.37,106.88c.28.32.53.66.78,1s.49.68.73,1c.48.69.93,1.39,1.37,2.09l-1-.12a40.33,40.33,0,0,1,3.58-4.24c.65-.66,1.32-1.31,2-1.92a21.09,21.09,0,0,1,2.24-1.72,22.44,22.44,0,0,1-1.45,2.42c-.53.77-1.09,1.51-1.67,2.23a41.6,41.6,0,0,1-3.8,4.06l-.68.62-.33-.75c-.33-.76-.66-1.53-1-2.31-.14-.39-.3-.78-.43-1.18S334.49,107.29,334.37,106.88Z" style="fill:#263238"></path><path d="M338.5,129.45c-2.37-.3-6.76-.93-9.12-1.3.46-3,1-6.07,1.56-9.1l.09-.49.49.09c3,.58,6.05,1.15,9.06,1.82-.51,2.33-1.5,6.66-2.08,9Zm0,0c.28-2.19.9-6.58,1.24-8.76l.31.45c-2.92-.45-5.81-1-8.71-1.51l.58-.4c-.55,2.9-1.1,5.79-1.73,8.67l-.31-.45c2.15.47,6.48,1.48,8.62,2Z" style="fill:#c7c7c7"></path><path d="M344.46,123.11a92.58,92.58,0,0,1,19.16,3.56,92.34,92.34,0,0,1-19.16-3.56Z" style="fill:#c7c7c7"></path><path d="M344.07,125.2c17,2.48,34.06,5.65,50.85,9.46-17-2.48-34.07-5.65-50.85-9.46Z" style="fill:#c7c7c7"></path><path d="M335.47,145.73c-2.37-.3-6.76-.93-9.12-1.3.46-3,1-6.07,1.56-9.1l.09-.49.49.09c3,.57,6.05,1.15,9.06,1.81-.51,2.34-1.5,6.67-2.08,9Zm0,0c.28-2.19.9-6.59,1.24-8.76l.31.45c-2.92-.45-5.81-1-8.71-1.51l.58-.4c-.55,2.9-1.1,5.79-1.73,8.67l-.31-.45c2.15.47,6.48,1.47,8.62,2Z" style="fill:#c7c7c7"></path><path d="M341.43,139.39A91.81,91.81,0,0,1,360.59,143a92.34,92.34,0,0,1-19.16-3.56Z" style="fill:#c7c7c7"></path><path d="M341,141.48c17,2.48,34.06,5.65,50.85,9.46-17-2.49-34.07-5.66-50.85-9.46Z" style="fill:#c7c7c7"></path><path d="M332.44,162c-2.37-.29-6.76-.92-9.12-1.29.46-3.05,1-6.08,1.56-9.1l.09-.5.49.1c3,.57,6.05,1.15,9.06,1.81-.51,2.34-1.5,6.67-2.08,9Zm0,0c.28-2.19.9-6.58,1.24-8.76l.31.45c-2.91-.45-5.81-1-8.71-1.5l.58-.4c-.55,2.89-1.1,5.79-1.73,8.67l-.31-.45c2.15.47,6.48,1.47,8.62,2Z" style="fill:#c7c7c7"></path><path d="M338.4,155.66a92.48,92.48,0,0,1,19.16,3.57,92.36,92.36,0,0,1-19.16-3.57Z" style="fill:#c7c7c7"></path><path d="M338,157.75c17,2.49,34.06,5.66,50.85,9.47-17-2.49-34.07-5.66-50.85-9.47Z" style="fill:#c7c7c7"></path><path d="M364.21,77.34l-1.16-.21L362.32,81a.41.41,0,1,1-.81-.15l.73-3.91-1.16-.22a.42.42,0,0,1-.33-.49.4.4,0,0,1,.48-.32l3.13.58a.41.41,0,0,1,.33.48A.42.42,0,0,1,364.21,77.34Z" style="fill:#0077FF"></path><path d="M367.17,81.11l-1.78-.33-.54.89a.42.42,0,0,1-.43.18.39.39,0,0,1-.14,0,.43.43,0,0,1-.14-.57l2.43-4a.43.43,0,0,1,.77.15l.82,4.62a.42.42,0,0,1-.34.48.33.33,0,0,1-.14,0,.42.42,0,0,1-.33-.33Zm-.15-.86-.3-1.69L365.83,80Z" style="fill:#0077FF"></path><path d="M369,81.39a.38.38,0,0,1,.55,0,2.42,2.42,0,0,0,1.3.82,1.58,1.58,0,0,0,1-.1.7.7,0,0,0,.42-.47.43.43,0,0,0,0-.25.81.81,0,0,0-.17-.26,3,3,0,0,0-1-.53h0a4.13,4.13,0,0,1-.89-.46,1.62,1.62,0,0,1-.58-.7,1.16,1.16,0,0,1-.06-.64,1.42,1.42,0,0,1,.79-1,2.24,2.24,0,0,1,1.34-.15,2.9,2.9,0,0,1,1.49.88.38.38,0,0,1,0,.54.37.37,0,0,1-.54,0,2.15,2.15,0,0,0-1.1-.69,1.45,1.45,0,0,0-.87.09.61.61,0,0,0-.36.41.4.4,0,0,0,0,.22.88.88,0,0,0,.17.23,2.68,2.68,0,0,0,.85.49h0a5,5,0,0,1,.95.5,1.67,1.67,0,0,1,.62.75,1.18,1.18,0,0,1,.06.65,1.4,1.4,0,0,1-.84,1,2.35,2.35,0,0,1-1.43.17A3.25,3.25,0,0,1,369,81.93.4.4,0,0,1,369,81.39Z" style="fill:#0077FF"></path><path d="M373.91,83.2l.79-4.29a.42.42,0,0,1,.48-.33.41.41,0,0,1,.33.48l-.39,2.1,2.82-1.94a.41.41,0,0,1,.57.11.41.41,0,0,1-.1.57l-1.92,1.31,1.23,2.44a.39.39,0,0,1-.16.55.38.38,0,0,1-.27,0A.41.41,0,0,1,377,84l-1.2-2.37-.9.64-.2,1a.41.41,0,0,1-.48.33A.4.4,0,0,1,373.91,83.2Z" style="fill:#0077FF"></path><path d="M379.08,83.26a.38.38,0,0,1,.54,0,2.5,2.5,0,0,0,1.3.82,1.6,1.6,0,0,0,1-.1.65.65,0,0,0,.41-.47.39.39,0,0,0,0-.24.64.64,0,0,0-.18-.26,3.15,3.15,0,0,0-.94-.54h0a4.13,4.13,0,0,1-.89-.46,1.65,1.65,0,0,1-.58-.7,1.22,1.22,0,0,1-.05-.63,1.4,1.4,0,0,1,.78-1,2.27,2.27,0,0,1,1.35-.15,3,3,0,0,1,1.49.89.39.39,0,0,1,0,.54.38.38,0,0,1-.54,0,2.17,2.17,0,0,0-1.09-.69,1.43,1.43,0,0,0-.87.1.58.58,0,0,0-.37.41.35.35,0,0,0,0,.21.6.6,0,0,0,.16.23,2.4,2.4,0,0,0,.86.49h0a4.54,4.54,0,0,1,1,.49,1.86,1.86,0,0,1,.62.75,1.3,1.3,0,0,1,.06.65,1.44,1.44,0,0,1-.85,1,2.27,2.27,0,0,1-1.43.17A3.21,3.21,0,0,1,379,83.81.39.39,0,0,1,379.08,83.26Z" style="fill:#0077FF"></path><rect x="367.75" y="43.97" width="12.82" height="42.04" transform="translate(241.8 420.95) rotate(-79.46)" style="fill:#c7c7c7"></rect><path d="M389.25,54.16,363.6,49.38l-2.42,6.68,28.31,5.27Zm-13.56,2.6a1.54,1.54,0,1,1,1.8-1.23A1.54,1.54,0,0,1,375.69,56.76Z" style="fill:#c7c7c7"></path><polygon points="389.49 61.33 361.18 56.06 361.73 54.56 389.43 59.72 389.49 61.33" style="fill:#a6a6a6"></polygon></g><g id="freepik--Character--inject-68"><path d="M164.29,101.5a9.23,9.23,0,0,0-16.74,0c-1.9-3.27-5.3-5.51-9.31-4.56s-6.37,4.86-6,8.95c0,0,0,0,.06,0,.09-3.75,2.26-7.41,6.1-8.28,3.29-.73,5.87.74,7.72,3.05a10.17,10.17,0,0,0-8-1.36,7.91,7.91,0,0,0-5.71,6.63c-3.54-.44-7.48.33-10,3a7.88,7.88,0,0,0-1.61,8.5,8.83,8.83,0,0,0-5.64,15.22,7.42,7.42,0,0,0-5,11.43,5,5,0,0,0-3.29,4.28,8.34,8.34,0,0,0,2.24,6,6,6,0,0,0-1,5.63,5.41,5.41,0,0,0,6.13,3.41c.18,3.57.88,7.41,3.48,10,2.14,2.15,5.48,3.24,8.33,2a10.72,10.72,0,0,0,13.74,8.29,7.53,7.53,0,0,0,6.36,4,11.17,11.17,0,0,0,5.31-.86,5.64,5.64,0,0,0,6.1,2.5,7.45,7.45,0,0,0,4.85-4.16,4.33,4.33,0,0,1,1.82-.55,9.82,9.82,0,0,0,7.82-5,6.69,6.69,0,0,0,8.07-6,7.52,7.52,0,0,0,6.78-8.09,11,11,0,0,0,7.52-5.16c1.24-2.11,1.72-5,.17-7,1.86-.51,2.61-2.78,2.23-4.61a9.56,9.56,0,0,0-.72-2,8.31,8.31,0,0,1-1.07-2.49,6.2,6.2,0,0,1,.84-2.48,8.25,8.25,0,0,0,.44-1.76,10,10,0,0,0-6.52-10.62c1.12-3.05-.57-6.18-2.8-8.32a17,17,0,0,0-2.4-1.82,4.4,4.4,0,0,1-1.81-1.91c-.23-.54-.34-1.14-.57-1.68-.78-1.86-2.48-2.76-4.25-3.46C180.54,104.08,171.6,98.34,164.29,101.5Zm-6,86.87a6,6,0,0,1-6.7-1.59l.27-.15s.7.43,1.06.61a7.25,7.25,0,0,0,2.1.61,7.78,7.78,0,0,0,4.46-.67,8.09,8.09,0,0,0,1.69-1.14l.2-.15A7.26,7.26,0,0,1,158.33,188.37Zm-49-30a5.72,5.72,0,0,0,4.84,4.45c0,.07,0,.13,0,.2-2.46.06-4.72-.57-5.65-3.26a5,5,0,0,1,1-4.89l0,0A6.31,6.31,0,0,0,109.29,158.41Zm68.23-46.19-.08,0a10.36,10.36,0,0,0-9.56-10.8C173.85,101.43,179,104.91,177.52,112.22Z" style="fill:#263238"></path><path d="M176.59,181.33c9.71,24,50.08,109.23,73.2,120.74,15.12,7.53,87.7,6.25,101-1.39,7.4-4.25-.06-62.31-9.17-61.85-11.37.58-67.17,3.93-73.59,1.52s-52.85-54.42-70.16-69.9C168,143.76,170.13,165.35,176.59,181.33Z" style="fill: rgb(235, 148, 129);"></path><path d="M324,236l-4.29,75.49s-58.24,3.47-75.35-8.2c-24.38-16.63-65.2-107.91-70.19-122.34-11.8-34.15,8.26-30,25.12-14.37,10.95,10.16,55.15,63.19,70.62,72.32C274.28,241.45,324,236,324,236Z" style="fill:#0077FF"></path><path d="M286.94,268.73a3.68,3.68,0,0,1-1.68-.58,3.13,3.13,0,0,1-1.45-2.72,4.13,4.13,0,0,0-2.69-3.81,4.23,4.23,0,0,0-2.26-.16c-.69.14-1.36.23-2.05.43.69.18,1.36.24,2.05.38a4.3,4.3,0,0,1,1.72.53,3.15,3.15,0,0,1,1.54,2.66,4.22,4.22,0,0,0,2.54,3.88,3.94,3.94,0,0,0,2.28.2c.67-.14,1.36-.2,2-.41C288.3,268.93,287.61,268.87,286.94,268.73Zm-67.08-2.61a3.76,3.76,0,0,1-1.67-.58,3.13,3.13,0,0,1-1.45-2.72,4.11,4.11,0,0,0-5-4l-.26,0,.43.78a4,4,0,0,1,1.55.51,3.14,3.14,0,0,1,1.54,2.65,4.2,4.2,0,0,0,2.54,3.88,3.75,3.75,0,0,0,2.27.2c.67-.13,1.36-.2,2-.4C221.22,266.32,220.53,266.25,219.86,266.12ZM196.38,164a2.58,2.58,0,0,1-1.12.22,4.28,4.28,0,0,0-3.88,2.57,4.1,4.1,0,0,0-.23,2.25c.16.67.23,1.36.43,2,.18-.67.27-1.36.4-2a4,4,0,0,1,.58-1.67,3.11,3.11,0,0,1,2.74-1.45,4,4,0,0,0,2.37-.82C197.24,164.71,196.81,164.35,196.38,164Zm61.38,116.1c-.14-.67-.22-1.36-.4-2-.2.67-.29,1.36-.43,2a3.79,3.79,0,0,1-.51,1.72,3.09,3.09,0,0,1-2.65,1.54,4.28,4.28,0,0,0-3.88,2.56,4.24,4.24,0,0,0-.23,2.26c.16.66.23,1.36.43,2,.18-.66.27-1.36.4-2a4,4,0,0,1,.58-1.68,3.15,3.15,0,0,1,2.74-1.45,4.17,4.17,0,0,0,3.79-2.67A4.11,4.11,0,0,0,257.76,280.09Zm-43.27-60.18c-.14-.67-.23-1.36-.4-2-.2.67-.29,1.36-.43,2a3.79,3.79,0,0,1-.51,1.72,3.1,3.1,0,0,1-2.65,1.54,4.28,4.28,0,0,0-3.88,2.56,4.12,4.12,0,0,0-.23,2.25c.16.67.23,1.37.43,2,.18-.66.26-1.36.4-2a4,4,0,0,1,.58-1.67,3.15,3.15,0,0,1,2.74-1.45,4.17,4.17,0,0,0,3.79-2.67A4.11,4.11,0,0,0,214.49,219.91ZM321,268.85a4.22,4.22,0,0,0-3.88,2.54,3.78,3.78,0,0,0-.2,2.28c.14.67.23,1.36.4,2,.21-.67.27-1.36.43-2a3.55,3.55,0,0,1,.53-1.68,3.22,3.22,0,0,1,2.75-1.45,3.64,3.64,0,0,0,1-.14l.1-1.77A2.73,2.73,0,0,1,321,268.85Zm-23.39,28.2a3.81,3.81,0,0,1-1.59.78,3.21,3.21,0,0,1-3-.89,4.16,4.16,0,0,0-4.6-.83,4.4,4.4,0,0,0-1.69,1.52c-.38.58-.8,1.11-1.16,1.72.62-.36,1.16-.76,1.74-1.14a3.85,3.85,0,0,1,1.58-.85,3.17,3.17,0,0,1,3,.78,4.23,4.23,0,0,0,4.55.94,4,4,0,0,0,1.74-1.45c.37-.58.82-1.12,1.15-1.74C298.73,296.25,298.2,296.65,297.62,297.05ZM310,238.47a3.6,3.6,0,0,1-1.58.78,3.24,3.24,0,0,1-3-.89,4.31,4.31,0,0,0-.62-.51l-5,.43a4.74,4.74,0,0,0-.64.77c-.38.58-.81,1.12-1.16,1.72.62-.36,1.16-.76,1.74-1.14a3.85,3.85,0,0,1,1.58-.85,3.17,3.17,0,0,1,3,.78,4.24,4.24,0,0,0,4.55.94,4,4,0,0,0,1.74-1.45c.38-.58.83-1.11,1.16-1.74C311.09,237.67,310.55,238.07,310,238.47Zm-57.54,6.61a3.84,3.84,0,0,1-1.58.78,3.25,3.25,0,0,1-3-.9,4.16,4.16,0,0,0-4.59-.82,4.41,4.41,0,0,0-1.7,1.51c-.37.58-.8,1.12-1.16,1.72.63-.35,1.16-.76,1.74-1.14a3.85,3.85,0,0,1,1.59-.84,3.12,3.12,0,0,1,3,.78,4.24,4.24,0,0,0,4.55.93,4,4,0,0,0,1.74-1.45c.38-.57.83-1.11,1.16-1.73A20.23,20.23,0,0,0,252.43,245.08Zm-32-55.73h0a4,4,0,0,0-1.76.37,4.29,4.29,0,0,0-1.69,1.5c-.38.58-.81,1.11-1.16,1.74.62-.36,1.16-.78,1.74-1.16a3.84,3.84,0,0,1,1.56-.85,3.16,3.16,0,0,1,3,.78,3.88,3.88,0,0,0,1.27.87Z" style="fill:#fff"></path><path d="M303.57,306.67c.29-10.68,3.05-54.34,4.29-63.74.09-.65.52-.75.52-.06-.09,32-3.57,53.34-4.38,63.8C304,306.93,303.57,306.94,303.57,306.67Z" style="fill:#263238"></path><path d="M301.72,311.93c-18.6.06-46.41-1.21-57.37-8.68-24.38-16.63-65.2-107.91-70.19-122.34-9.22-26.69,1-30,14-22.7Z" style="opacity:0.1"></path><path d="M220.87,258.6l13.53,66H83.17s32.16-123.27,64.23-158.1c16-17.42,31.54-16.12,43.55-3.94,3,3.08,35.08,43.83,38.9,62.14C233.18,240.82,220.87,258.6,220.87,258.6Z" style="fill:#0077FF"></path><path d="M153.22,308.39a3.38,3.38,0,0,1-1.59.78,3.18,3.18,0,0,1-3-.89,4.17,4.17,0,0,0-4.6-.8,4.34,4.34,0,0,0-1.69,1.49c-.38.58-.8,1.12-1.16,1.74.62-.35,1.16-.78,1.74-1.16a4,4,0,0,1,1.56-.84,3.19,3.19,0,0,1,3,.78,4.07,4.07,0,0,0,6.29-.49c.38-.61.8-1.14,1.16-1.74C154.33,307.59,153.8,308,153.22,308.39Zm74.24-7.13a4,4,0,0,1-1.58.8,3.27,3.27,0,0,1-3-.89,4.1,4.1,0,0,0-4.57-.83,4.15,4.15,0,0,0-1.7,1.52c-.38.58-.82,1.11-1.16,1.71.63-.35,1.16-.75,1.72-1.13a4.11,4.11,0,0,1,1.58-.87,3.2,3.2,0,0,1,3,.8,4.22,4.22,0,0,0,4.53.94,4,4,0,0,0,1.76-1.45c.38-.58.8-1.14,1.14-1.74C228.57,300.48,228,300.88,227.46,301.26Zm-51-52.11a3.93,3.93,0,0,1-1.59.78,3.22,3.22,0,0,1-3-.89,4.16,4.16,0,0,0-4.6-.83,4.32,4.32,0,0,0-1.69,1.52c-.38.58-.8,1.11-1.16,1.71.62-.35,1.16-.75,1.74-1.13a3.73,3.73,0,0,1,1.58-.85,3.15,3.15,0,0,1,3,.78,4.25,4.25,0,0,0,4.55.94,4.11,4.11,0,0,0,1.74-1.45c.37-.58.82-1.12,1.16-1.74C177.62,248.35,177.09,248.75,176.51,249.15ZM156.76,175a3.93,3.93,0,0,1-1.59.78,3.22,3.22,0,0,1-3-.89,4.14,4.14,0,0,0-4.59-.83,4.28,4.28,0,0,0-1.7,1.52c-.38.58-.8,1.11-1.16,1.71.63-.35,1.16-.76,1.74-1.13a3.79,3.79,0,0,1,1.58-.85,3.14,3.14,0,0,1,3,.78,4.25,4.25,0,0,0,4.55.94,4.11,4.11,0,0,0,1.74-1.45c.38-.58.82-1.12,1.16-1.74C157.87,174.21,157.34,174.62,156.76,175ZM187.12,281.7c-.16-.69-.22-1.36-.4-2.05-.2.69-.29,1.36-.43,2.05a4.14,4.14,0,0,1-.51,1.72,3.09,3.09,0,0,1-2.65,1.54,4.2,4.2,0,0,0-3.88,2.54,3.61,3.61,0,0,0-.2,2.27c.13.67.22,1.36.4,2,.2-.67.27-1.36.42-2a3.51,3.51,0,0,1,.54-1.67,3.2,3.2,0,0,1,2.74-1.45A4.15,4.15,0,0,0,187,284,3.9,3.9,0,0,0,187.12,281.7Zm-40.27-62.52c-.16-.67-.22-1.36-.42-2-.18.67-.27,1.36-.4,2a4,4,0,0,1-.54,1.74,3.08,3.08,0,0,1-2.63,1.52A4.22,4.22,0,0,0,139,225a3.84,3.84,0,0,0-.22,2.25c.13.69.22,1.36.4,2a19.74,19.74,0,0,0,.42-2,4,4,0,0,1,.56-1.65,3.15,3.15,0,0,1,2.74-1.47,4.19,4.19,0,0,0,3.81-2.68A4.15,4.15,0,0,0,146.85,219.18Zm-37.09,64c-.16-.66-.22-1.36-.43-2-.17.66-.26,1.36-.4,2a4,4,0,0,1-.53,1.74,3.1,3.1,0,0,1-2.63,1.52,4.23,4.23,0,0,0-3.88,2.56,4,4,0,0,0-.23,2.26c.14.69.23,1.36.41,2a19.74,19.74,0,0,0,.42-2,4,4,0,0,1,.56-1.65,3.15,3.15,0,0,1,2.74-1.48,4.18,4.18,0,0,0,3.81-2.67A4.29,4.29,0,0,0,109.76,283.16Zm104.73-63.25c-.14-.67-.23-1.36-.4-2-.2.67-.29,1.36-.43,2a3.79,3.79,0,0,1-.51,1.72,3.1,3.1,0,0,1-2.65,1.54,4.28,4.28,0,0,0-3.88,2.56,4.12,4.12,0,0,0-.23,2.25c.16.67.23,1.37.43,2,.18-.66.26-1.36.4-2a4,4,0,0,1,.58-1.67,3.15,3.15,0,0,1,2.74-1.45,4.17,4.17,0,0,0,3.79-2.67A4.11,4.11,0,0,0,214.49,219.91ZM193,164.9a4,4,0,0,0-1.59,1.88,4.1,4.1,0,0,0-.23,2.25c.16.67.23,1.36.43,2,.18-.67.27-1.36.4-2a4,4,0,0,1,.58-1.67,3.21,3.21,0,0,1,1.43-1.21C193.62,165.69,193.29,165.28,193,164.9Zm-49.75,109a3.81,3.81,0,0,1-1.7-.58,3.14,3.14,0,0,1-1.45-2.74,4.08,4.08,0,0,0-4.95-3.95c-.67.14-1.34.23-2,.41.69.2,1.36.29,2,.42a3.92,3.92,0,0,1,1.72.51,3.17,3.17,0,0,1,1.56,2.66,4.15,4.15,0,0,0,2.54,3.88,4.3,4.3,0,0,0,2.28.22c.66-.16,1.33-.22,2-.43C144.55,274.08,143.88,274,143.22,273.85Zm46.1,50a4,4,0,0,0-2.27-.15c-.67.13-1.34.22-2,.4.69.2,1.36.29,2,.42l.5.07h3A3.87,3.87,0,0,0,189.32,323.84Zm30.54-57.72a3.76,3.76,0,0,1-1.67-.58,3.13,3.13,0,0,1-1.45-2.72,4.11,4.11,0,0,0-5-4c-.69.13-1.36.22-2,.42.69.18,1.36.25,2,.38a4.3,4.3,0,0,1,1.72.54,3.14,3.14,0,0,1,1.54,2.65,4.2,4.2,0,0,0,2.54,3.88,3.75,3.75,0,0,0,2.27.2c.67-.13,1.36-.2,2-.4C221.22,266.32,220.53,266.25,219.86,266.12Zm-38.25-61.53a3.48,3.48,0,0,1-1.67-.55,3.26,3.26,0,0,1-1.47-2.75,4.12,4.12,0,0,0-2.68-3.79,3.89,3.89,0,0,0-2.25-.15c-.67.13-1.36.22-2,.4.67.2,1.36.29,2,.42a4.25,4.25,0,0,1,1.72.51,3.11,3.11,0,0,1,1.54,2.66,4.14,4.14,0,0,0,2.54,3.85,3.85,3.85,0,0,0,2.27.23c.69-.14,1.36-.23,2-.4C183,204.82,182.3,204.73,181.61,204.59Z" style="fill:#fff"></path><path d="M176.19,254a131.28,131.28,0,0,1,19.2,1.55c3.15.54,6.26,1.22,9.36,2,1.55.37,3.1.69,4.67,1a20.62,20.62,0,0,0,5,.52.12.12,0,0,1,0,.23,37.12,37.12,0,0,1-4.71.3,34.75,34.75,0,0,1-4.55-.48c-3.2-.51-6.38-1.17-9.57-1.72-6.45-1.1-12.9-2.2-19.41-2.84A.27.27,0,0,1,176.19,254Z" style="fill:#263238"></path><path d="M160.88,260.93a141.72,141.72,0,0,1,15.77-2.06c2.65-.19,5.28-.22,7.94-.18,1.26,0,2.53.06,3.8.11s2.78.31,4.17.35c.14,0,.16.23,0,.23-1.31,0-2.63.22-3.94.3l-4,.22c-2.64.15-5.28.33-7.92.46-5.3.26-10.56.57-15.84,1C160.62,261.39,160.61,261,160.88,260.93Z" style="fill:#263238"></path><path d="M160.84,183.68c-8.45,21.09-46.85,94.87-54.58,100.63-9.21,6.86-47.85,26.49-55.32-8.17-5.17-24,59.65-85.65,89.31-109.15C156.49,154.11,175,148.36,160.84,183.68Z" style="fill:#0077FF"></path><path d="M116.87,204.59a3.48,3.48,0,0,1-1.67-.55,3.27,3.27,0,0,1-1.48-2.75,4.11,4.11,0,0,0-2.67-3.79,3.9,3.9,0,0,0-2.25-.15c-.67.13-1.36.22-2,.4.67.2,1.36.29,2,.42a4.2,4.2,0,0,1,1.71.51,3.11,3.11,0,0,1,1.54,2.66,4.17,4.17,0,0,0,2.54,3.85,3.88,3.88,0,0,0,2.28.23c.69-.14,1.36-.23,2-.4C118.23,204.82,117.56,204.73,116.87,204.59ZM79.21,269.72a3.94,3.94,0,0,1-1.69-.58,3.16,3.16,0,0,1-1.45-2.74,4.1,4.1,0,0,0-2.68-3.79,4,4,0,0,0-2.27-.16c-.67.13-1.34.22-2,.4.69.2,1.36.29,2,.43a3.83,3.83,0,0,1,1.72.51,3.16,3.16,0,0,1,1.56,2.65,4.05,4.05,0,0,0,4.81,4.1c.67-.15,1.34-.22,2-.42C80.55,269.94,79.88,269.85,79.21,269.72ZM54.69,282.1c-.16-.67-.23-1.36-.43-2-.18.67-.27,1.36-.4,2a4.2,4.2,0,0,1-.45,1.59c.24.5.48,1,.74,1.44a3.18,3.18,0,0,0,.38-.76A4.26,4.26,0,0,0,54.69,282.1ZM71,234.91c0,.24.1.48.16.72a11.27,11.27,0,0,0,.29-1.28C71.26,234.54,71.11,234.72,71,234.91Zm7.85-9.36c-.38.44-.77.88-1.15,1.33h0c-.07.13-.13.25-.21.38a3.29,3.29,0,0,1-1,1c-.63.74-1.26,1.47-1.88,2.21h.27a4.22,4.22,0,0,0,3.81-2.68A4.07,4.07,0,0,0,78.82,225.55ZM139,225a3.84,3.84,0,0,0-.22,2.25c.1.52.17,1,.28,1.54.13-.25.26-.51.4-.76h0c.05-.25.09-.51.14-.77a4,4,0,0,1,.56-1.65,3.24,3.24,0,0,1,1.1-1l1.06-2.07A4.18,4.18,0,0,0,139,225Zm-32.25,15.28a3.69,3.69,0,0,1-1.59.78,3.2,3.2,0,0,1-3-.89,4.17,4.17,0,0,0-4.6-.82,4.38,4.38,0,0,0-1.69,1.51c-.38.58-.8,1.12-1.16,1.72.62-.36,1.16-.76,1.74-1.14a3.7,3.7,0,0,1,1.58-.84,3.15,3.15,0,0,1,3,.78,4.25,4.25,0,0,0,4.55.93,4,4,0,0,0,1.74-1.45c.37-.58.82-1.11,1.16-1.74C107.84,239.48,107.31,239.88,106.73,240.28Zm50-65.26a3.93,3.93,0,0,1-1.59.78,3.22,3.22,0,0,1-3-.89,4.14,4.14,0,0,0-4.59-.83,4.28,4.28,0,0,0-1.7,1.52c-.38.58-.8,1.11-1.16,1.71.63-.35,1.16-.76,1.74-1.13a3.79,3.79,0,0,1,1.58-.85,3.14,3.14,0,0,1,3,.78,4.25,4.25,0,0,0,4.55.94,4.11,4.11,0,0,0,1.74-1.45c.38-.58.82-1.12,1.16-1.74C157.87,174.21,157.34,174.62,156.76,175Z" style="fill:#fff"></path><path d="M145.8,222.15c-2.08,2.81-4.32,5.49-6.52,8.19.57-1,1.14-2.05,1.69-3.08,2.4-4.49,4.68-9,7.1-13.51.08-.15-.15-.24-.24-.1-2.43,3.85-5,7.65-7.35,11.54s-4.51,7.66-6.69,11.54c-4.39,7.83-8.83,15.64-13,23.58a139.64,139.64,0,0,0-6.56,13.48c0,.13.14.26.22.13,2.54-3.68,4.69-7.63,6.87-11.52s4.35-7.75,6.49-11.65,4.38-7.94,6.61-11.89c1.12-2,2.26-4,3.39-5.93a66.24,66.24,0,0,0,8.09-10.72C145.93,222.16,145.84,222.1,145.8,222.15Z" style="fill:#263238"></path><path d="M166,292.5c7,4.67-12.27,62.6-24.2,59.39-29.91-8.06-83.7-58.9-87.51-69.74-5-14.2,6.55-27.33,16.26-29C87.32,250.27,155.14,285.24,166,292.5Z" style="fill: rgb(235, 148, 129);"></path><path d="M200.21,308.21c16.29,11.49,18.71,16.94,37.61,19.33,12.4,1.57,16.72,10.17,4.54,14.72-19.91,7.44-44.05-3-51.37-9Z" style="fill: rgb(235, 148, 129);"></path><path d="M248.54,381.26c-1.33,1.46-2.68,2.89-4,4.31s-2.74,2.83-4.1,4.25-2.76,2.8-4.15,4.18l-2.1,2.08L232,398.13c.66-.73,1.33-1.45,2-2.17l2-2.14c1.35-1.42,2.73-2.83,4.1-4.24s2.75-2.81,4.15-4.19S247.11,382.62,248.54,381.26Z" style="fill:#dbdbdb"></path><path d="M230.13,386.9c1.79.27,3.58.57,5.37.88s3.56.65,5.35,1,3.55.68,5.33,1l2.66.55c.89.2,1.77.38,2.66.59-.9-.13-1.79-.28-2.69-.42l-2.68-.46c-1.78-.31-3.56-.64-5.35-1s-3.56-.68-5.33-1S231.9,387.31,230.13,386.9Z" style="fill:#dbdbdb"></path><path d="M267.23,375.54c-1.32,1.45-2.67,2.88-4,4.31s-2.73,2.83-4.09,4.24-2.76,2.8-4.16,4.19l-2.09,2.07c-.71.69-1.41,1.38-2.13,2,.66-.73,1.34-1.44,2-2.16l2-2.14c1.36-1.43,2.74-2.83,4.1-4.25s2.76-2.8,4.16-4.19S265.81,376.9,267.23,375.54Z" style="fill:#dbdbdb"></path><path d="M248.83,381.18c1.79.26,3.58.57,5.36.87s3.57.65,5.35,1l5.34,1.05,2.66.55c.88.2,1.77.38,2.65.59-.89-.13-1.79-.29-2.68-.43l-2.68-.45c-1.79-.31-3.57-.65-5.35-1s-3.56-.68-5.34-1.05S250.59,381.58,248.83,381.18Z" style="fill:#dbdbdb"></path><polygon points="263.02 374 265.83 379.64 283.64 413.82 284.72 413.49 268.75 378.74 266.21 373.02 263.02 374" style="fill:#dbdbdb"></polygon><polygon points="266.21 373.02 263.02 374 265.83 379.64 268.75 378.74 266.21 373.02" style="fill:#c7c7c7"></polygon><polygon points="254.87 422.63 255.95 422.3 251.56 384 250.73 377.76 247.55 378.74 248.65 384.9 254.87 422.63" style="fill:#dbdbdb"></polygon><polygon points="247.55 378.74 248.65 384.9 251.56 384 250.73 377.76 247.55 378.74" style="fill:#c7c7c7"></polygon><polygon points="234.74 428.79 235.82 428.46 231.43 390.17 230.61 383.92 227.42 384.9 228.52 391.06 234.74 428.79" style="fill:#dbdbdb"></polygon><polygon points="228.52 391.06 231.43 390.17 230.61 383.92 227.42 384.9 228.52 391.06" style="fill:#c7c7c7"></polygon><polygon points="224.39 388.88 273.56 373.82 271.98 368.64 253.57 374.28 235.19 336.35 212.49 343.3 224.39 388.88" style="fill:#dbdbdb"></polygon><polygon points="224.39 388.88 227.07 388.06 215.04 342.52 212.49 343.3 224.39 388.88" style="fill:#c7c7c7"></polygon><path d="M148.94,286.24s24.61,6.17,43.19,16.69c12.84,7.28,39,26.23,39.78,70.29.19,10.45-7,25.47-13.46,8.51-4.62-12.05-3.9-21.08-7.86-27.6,0,0-11.37,18-21.84,17.8a193.46,193.46,0,0,1-27.33-2.54,39.63,39.63,0,0,1,0-5.16s-9.76-1.14-19.66-12.34Z" style="fill: rgb(235, 148, 129);"></path><path d="M203.27,311.84c2.57,7.3,7.74,22.86,7.54,37.07-.22,15.77-4.9,46.1-16.54,45.82-8.54-.21-7.77-11.94-7.77-11.94s-4.58,12.13-12.25,10.25c-7-1.71-5.85-10.75-5.85-10.75s-4,6.88-10.46,3.94c-7.72-3.54,2-17.38-2.7-27.72C154.18,356.19,203.27,311.84,203.27,311.84Z" style="fill: rgb(235, 148, 129);"></path><path d="M194.18,345.89c1.28,7.26,0,24.5-7.39,36.74-.17.28-.47.3-.37,0A155.17,155.17,0,0,0,194,345.89C194,345.8,194.16,345.81,194.18,345.89Z" style="fill:#263238"></path><path d="M178.25,346.13c.46,6.38-1.69,24.09-9.57,36.24-.18.27-.48.27-.37,0a166,166,0,0,0,9.79-36.24C178.11,346,178.24,346.05,178.25,346.13Z" style="fill:#263238"></path><path d="M210.68,354c3.4,5.78,4.3,10.94,5.68,17.41a88.76,88.76,0,0,0,2.47,9.49c.94,2.83,2.3,7,5.85,7.32,2,.16,3.5-1.49,4.46-3a25.5,25.5,0,0,0,2.42-7.76c0-.1.2-.08.18,0a36.48,36.48,0,0,1-1.63,7.4,8.56,8.56,0,0,1-3,4.06c-3.11,2-6.49-.57-8-3.31a27.38,27.38,0,0,1-2-5.25c-.53-1.72-1-3.46-1.37-5.22-.82-3.6-1.44-7.24-2.21-10.85a84.77,84.77,0,0,0-3.06-10.2A.12.12,0,0,1,210.68,354Z" style="fill:#263238"></path><path d="M205,379.77c1.29-3.81,5.16-21.13,5.44-25.71a.09.09,0,1,1,.18,0c.41,6.9-2.33,21.62-3.73,25.86s-3.31,9.38-6.36,12.63c-4.59,4.91-8.72,2.79-10.14,1.9a8.69,8.69,0,0,1-3.54-4.59,17.52,17.52,0,0,1-.45-7.1.09.09,0,1,1,.18,0c-.11,3.52.93,8.07,3.92,10.22a6.17,6.17,0,0,0,4.57,1.21A7.93,7.93,0,0,0,199.6,391C202.19,387.69,203.71,383.69,205,379.77Z" style="fill:#263238"></path><path d="M159.57,287.4l-39.26,73s-64.55-58.64-68.14-81.46C49.68,263.07,63,251.27,71.49,251.09,90,250.72,159.57,287.4,159.57,287.4Z" style="fill:#0077FF"></path><path d="M116.88,334.4a4,4,0,0,1-1.7-.58,3.16,3.16,0,0,1-1.44-2.75,4.12,4.12,0,0,0-2.68-3.79,4,4,0,0,0-2.28-.15c-.66.13-1.33.22-2,.4.69.2,1.36.29,2,.42a3.92,3.92,0,0,1,1.72.52,3.16,3.16,0,0,1,1.56,2.65A4.18,4.18,0,0,0,114.6,335a4.31,4.31,0,0,0,2.28.22c.67-.15,1.34-.22,2-.42C118.22,334.62,117.55,334.53,116.88,334.4ZM79.21,269.72a3.94,3.94,0,0,1-1.69-.58,3.16,3.16,0,0,1-1.45-2.74,4.1,4.1,0,0,0-2.68-3.79,4,4,0,0,0-2.27-.16c-.67.13-1.34.22-2,.4.69.2,1.36.29,2,.43a3.83,3.83,0,0,1,1.72.51,3.16,3.16,0,0,1,1.56,2.65,4.05,4.05,0,0,0,4.81,4.1c.67-.15,1.34-.22,2-.42C80.55,269.94,79.88,269.85,79.21,269.72ZM54.69,282.1c-.16-.67-.23-1.36-.43-2-.18.67-.27,1.36-.4,2a4.53,4.53,0,0,1-.36,1.42h0c.2.51.42,1,.67,1.58a3.9,3.9,0,0,0,.36-.74A4.26,4.26,0,0,0,54.69,282.1Zm55.07,1.06c-.16-.66-.22-1.36-.43-2-.17.66-.26,1.36-.4,2a4,4,0,0,1-.53,1.74,3.1,3.1,0,0,1-2.63,1.52,4.23,4.23,0,0,0-3.88,2.56,4,4,0,0,0-.23,2.26c.14.69.23,1.36.41,2a19.74,19.74,0,0,0,.42-2,4,4,0,0,1,.56-1.65,3.15,3.15,0,0,1,2.74-1.48,4.18,4.18,0,0,0,3.81-2.67A4.29,4.29,0,0,0,109.76,283.16Zm-32.4,26.58a3.84,3.84,0,0,1-1.58.78,3.19,3.19,0,0,1-3-.9A4.15,4.15,0,0,0,70,308.44c.83,1,1.68,2,2.54,3h0a4.22,4.22,0,0,0,3.66.27,4.05,4.05,0,0,0,1.74-1.45c.38-.58.83-1.12,1.16-1.74A20.23,20.23,0,0,0,77.36,309.74Zm66.71-2.26a4.34,4.34,0,0,0-1.69,1.49c-.38.58-.8,1.12-1.16,1.74.62-.35,1.16-.78,1.74-1.16a4,4,0,0,1,1.56-.84,3.19,3.19,0,0,1,3,.78l.12.11.81-1.52A4.14,4.14,0,0,0,144.07,307.48Z" style="fill:#fff"></path><path d="M106.26,342c5.16-10.46,27.81-52.5,33.32-61.25.38-.6.85-.51.54.17-14.69,31.72-27.86,51.27-33.44,61.27C106.54,342.43,106.13,342.25,106.26,342Z" style="fill:#263238"></path><path d="M160.17,286.83c-.27-.4-7.76-4.83-10.19-6.15q-7.22-3.92-14.63-7.47a317.09,317.09,0,0,0-30.18-12.61l-1.53-.54c-3.16-1.93-6.52-3.55-9.82-5.21a.08.08,0,1,0-.07.14c2.63,1.33,5.17,2.83,7.72,4.31q-2.49-.87-5-1.68c-3-.94-6-1.76-8.92-2.67a.08.08,0,1,0,0,.15c4.94,1.57,9.81,3.46,14.67,5.28s9.81,3.84,14.66,5.9q14.32,6.08,28.11,13.39c2.58,1.37,5.14,2.76,7.69,4.19,1.25.71,6.67,3.38,6.85,3.53a2.34,2.34,0,0,1-.26.69c-.11.21.08.4.19.21A6.55,6.55,0,0,0,160.17,286.83Z" style="fill:#263238"></path><path d="M189.64,158.57s-1.95,21.29-5.86,21.1c-12-.58-22.86-18.75-23.22-21.43-.09-.68,3.2-17,5.79-29.63,1.66-8.14,3-14.78,3-14.78l27.8,21.65-7,21.54Z" style="fill: rgb(235, 148, 129);"></path><path d="M197.19,135.48l-7,21.54a45.43,45.43,0,0,1-23.81-28.41c1.66-8.14,3-14.78,3-14.78l3.53,2.56Z" style="fill:#263238"></path><path d="M231.9,104.59c.79,39.78-23,44.74-31.53,44.9-7.79.15-34.32-.35-39.21-39.83S174.51,57.24,192.31,56,231.11,64.81,231.9,104.59Z" style="fill: rgb(235, 148, 129);"></path><path d="M223.35,104.85a26.56,26.56,0,0,1-2.62-.83,4.45,4.45,0,0,1-2.51-1.36,1.42,1.42,0,0,1,.18-1.72,3.5,3.5,0,0,1,3.52-.47,5.16,5.16,0,0,1,3,2.14A1.51,1.51,0,0,1,223.35,104.85Z" style="fill:#263238"></path><path d="M196,103.24a24.76,24.76,0,0,0,2.73-.29,4.44,4.44,0,0,0,2.73-.84,1.42,1.42,0,0,0,.17-1.72,3.51,3.51,0,0,0-3.36-1.16,5.18,5.18,0,0,0-3.4,1.49A1.51,1.51,0,0,0,196,103.24Z" style="fill:#263238"></path><path d="M201.63,113.45c0-.11-.22.11-.22.22-.12,2.71-.72,5.79-3.23,6.5-.08,0-.08.15,0,.15C201.2,120.13,202,116,201.63,113.45Z" style="fill:#263238"></path><path d="M199.44,110.44c-4.32-.66-5.33,8-1.33,8.64S203.06,111,199.44,110.44Z" style="fill:#263238"></path><path d="M197.68,110.7c-.82.4-1.66,1.19-2.58,1.17-1.08,0-1.77-1-2.36-2-.06-.1-.14,0-.16.09-.22,1.66.22,3.44,2,3.9,1.6.41,2.94-.93,3.55-2.55C198.22,111,198,110.54,197.68,110.7Z" style="fill:#263238"></path><path d="M217.14,114.19c0-.1.2.16.18.27-.42,2.67-.45,5.81,1.87,7,.07,0,.05.17,0,.14C216.23,120.83,216.31,116.66,217.14,114.19Z" style="fill:#263238"></path><path d="M219.89,111.68c4.36.21,3.63,8.93-.42,8.73S216.23,111.51,219.89,111.68Z" style="fill:#263238"></path><path d="M221.66,112.41c.65.52,1.26,1.42,2.08,1.54s1.73-.74,2.41-1.59c.08-.09.14,0,.13.11-.09,1.67-.79,3.35-2.42,3.54s-2.43-1.35-2.69-3.05C221.12,112.65,221.4,112.2,221.66,112.41Z" style="fill:#263238"></path><path d="M198.65,133.89c.48.77.91,1.77,1.85,2.07a7,7,0,0,0,3,0,.09.09,0,0,1,.08.16,3.62,3.62,0,0,1-3.68.64,2.87,2.87,0,0,1-1.52-2.82C198.36,133.79,198.58,133.78,198.65,133.89Z" style="fill:#263238"></path><path d="M211.5,126.22s-.15,4.08-.48,6c0,.18-.5.18-1.15.11,0,0-.05,0-.07,0a9.08,9.08,0,0,1-8.09-4.88c-.1-.2.18-.35.33-.21a13.64,13.64,0,0,0,7.74,3.78c.23-.49,0-7,.33-7a16.4,16.4,0,0,1,4.1,1.73c.57-8.5-.23-17,.46-25.46a.26.26,0,0,1,.51,0c1.47,8.86,1,18.65.67,27.43C215.82,128.77,212.2,126.67,211.5,126.22Z" style="fill:#263238"></path><path d="M207.89,131.37a9,9,0,0,1-4.17,2,4.07,4.07,0,0,1-2.47-.39c-1.65-.85-1.34-2.47-.71-3.78a9.51,9.51,0,0,1,1.26-1.94A11.73,11.73,0,0,0,207.89,131.37Z" style="fill:#263238"></path><path d="M203.72,133.34a4.07,4.07,0,0,1-2.47-.39c-1.65-.85-1.34-2.47-.71-3.78C202.38,129.78,204,131.47,203.72,133.34Z" style="fill:#ff99ba"></path><path d="M161,111.18c9.29-2.83,11-11.87,11-11.87A42.72,42.72,0,0,0,191.24,88c-.38.77-3.14,6.35-4.64,9.14,25.64-1,36.17-18.95,36.17-18.95,6.9,9.26,7.76,14.67,8.55,17.42,0,0,2.43-14.29-3.93-25.69a24.79,24.79,0,0,0-22.18-13s-17.64-9.16-35.11,5C151.3,77.17,161,111.18,161,111.18Z" style="fill:#263238"></path><path d="M206.17,95.76a46.71,46.71,0,0,1-13.49,2.82s0,0,0-.06a39.57,39.57,0,0,0,19.95-8.38,37.67,37.67,0,0,0,6.49-6.74,25.81,25.81,0,0,0,4.71-9,.2.2,0,0,1,.38.09c-.79,3.4-1.56,6.53-3.42,9.54A27.77,27.77,0,0,1,214,91.46a31.93,31.93,0,0,1-7.86,4.3" style="fill:#263238"></path><path d="M194.78,125.35A12.42,12.42,0,1,1,209,111.8h0a12.44,12.44,0,0,1-11.1,13.62A12.17,12.17,0,0,1,194.78,125.35Zm3.4-22.93A10.76,10.76,0,1,0,207.3,112,10.79,10.79,0,0,0,198.18,102.42Z" style="fill:#0077FF"></path><path d="M223.27,126.07c-4.7-.7-8.25-6.14-8.05-12.62a14.79,14.79,0,0,1,2.89-8.6,7.73,7.73,0,0,1,13.23.41A14.83,14.83,0,0,1,233.7,114c-.21,6.85-4.53,12.29-9.62,12.14A7.4,7.4,0,0,1,223.27,126.07Zm2.15-23a4.48,4.48,0,0,0-.63-.06,6.6,6.6,0,0,0-5.37,2.89,13.24,13.24,0,0,0-2.55,7.63c-.17,5.93,3.06,10.86,7.26,11s7.73-4.6,7.91-10.53a13.18,13.18,0,0,0-2.07-7.77A6.79,6.79,0,0,0,225.42,103Z" style="fill:#0077FF"></path><path d="M208.5,113.23l-1-1.31c1.93-1.52,6.35-3.51,9.28-.18l-1.25,1.1C212.88,109.85,208.67,113.09,208.5,113.23Z" style="fill:#0077FF"></path><path d="M153.09,114.73l-1.45-.81c.37-.67,3.78-6.62,7.51-7.11,3.48-.45,25.66,2.32,26.6,2.44l-.21,1.64c-6.35-.8-23.49-2.79-26.18-2.43C156.9,108.78,154,113.09,153.09,114.73Z" style="fill:#0077FF"></path><path d="M167.54,112.59s-7.83-13-13.66-10.26-.52,21.11,5.92,24a6.72,6.72,0,0,0,9.23-3Z" style="fill: rgb(235, 148, 129);"></path><path d="M155.53,107.57c-.1,0-.13.13,0,.17,4.5,2.19,6.65,6.64,8.06,11.21-1.27-1.81-3.08-2.87-5.48-1.39-.13.08,0,.28.11.26a4.15,4.15,0,0,1,4.45,1.74,20.74,20.74,0,0,1,1.93,3.82c.18.43.95.26.82-.23l0-.11C165.86,117.15,161.83,108.59,155.53,107.57Z" style="fill:#263238"></path><path d="M163.64,124.84a1.39,1.39,0,1,1-1.25-1.52A1.4,1.4,0,0,1,163.64,124.84Z" style="fill:#fff"></path><path d="M160,122.08a.88.88,0,1,1-.79-1A.87.87,0,0,1,160,122.08Z" style="fill:#fff"></path><path d="M146.62,162.23c9.9,17.71,32,34.05,42.95,31.83s7.26-29.69,7.26-29.69S185.15,151.89,167.42,154C154.08,155.58,146.62,162.23,146.62,162.23Z" style="fill: rgb(235, 148, 129);"></path><polygon points="333.4 310.39 257.69 316.78 252.75 315.71 281.9 208.24 286.84 209.31 362.55 202.92 333.4 310.39" style="fill:#ebebeb"></polygon><polygon points="281.9 208.24 286.84 209.31 368.12 202.45 365.22 201.16 281.9 208.24" style="fill:#dbdbdb"></polygon><polygon points="338.97 309.92 257.69 316.78 286.84 209.31 368.12 202.45 338.97 309.92" style="fill:#455a64"></polygon><path d="M295.48,208.59a7.26,7.26,0,0,1-3.13,4.54c-.74.48-1-.52-.3-1a5.43,5.43,0,0,0,2.14-2.88,4.16,4.16,0,0,0,.13-.59,3.85,3.85,0,0,0,0-2,1.25,1.25,0,0,0-.52-.67.14.14,0,0,1-.05,0s-.09,0-.11,0h-.15a1,1,0,0,0-.57.09,2.33,2.33,0,0,0-.88.68,5.24,5.24,0,0,0-.72,1.15c-.12.2-.2.42-.3.63l0,.15a.46.46,0,0,0-.08.21s-.05.1,0,.14l-1.16.1a8.77,8.77,0,0,1,.93-2.1,4.45,4.45,0,0,1,3-2.25,1.81,1.81,0,0,1,2,1.51A4.81,4.81,0,0,1,295.48,208.59Z" style="fill:#0077FF"></path><path d="M301.84,208.05a7.22,7.22,0,0,1-3.13,4.54c-.74.48-1-.51-.3-1a5.39,5.39,0,0,0,2.14-2.88,4.16,4.16,0,0,0,.13-.59,3.8,3.8,0,0,0,0-2,1.27,1.27,0,0,0-.52-.68.14.14,0,0,1-.05,0s-.09,0-.1,0h-.16a1.07,1.07,0,0,0-.57.09,2.33,2.33,0,0,0-.88.68,5.07,5.07,0,0,0-.72,1.16,5.25,5.25,0,0,0-.3.63l0,.14a.9.9,0,0,0-.08.21.28.28,0,0,0,0,.15l-1.16.09a9,9,0,0,1,.93-2.1,4.49,4.49,0,0,1,3-2.24,1.79,1.79,0,0,1,2,1.5A4.81,4.81,0,0,1,301.84,208.05Z" style="fill:#0077FF"></path><path d="M308.2,207.52a7.24,7.24,0,0,1-3.13,4.54c-.73.48-1-.52-.29-1a5.44,5.44,0,0,0,2.13-2.87c0-.19.11-.41.14-.6a3.91,3.91,0,0,0-.05-2,1.34,1.34,0,0,0-.51-.68l-.06,0s-.09,0-.1,0a.62.62,0,0,1-.16,0,1,1,0,0,0-.57.1,2.33,2.33,0,0,0-.88.68,5,5,0,0,0-.72,1.15,6.09,6.09,0,0,0-.3.63l0,.14a1,1,0,0,0-.08.22s-.05.09,0,.14l-1.15.1a7.9,7.9,0,0,1,.93-2.1,4.44,4.44,0,0,1,2.95-2.25,1.8,1.8,0,0,1,2,1.51A4.81,4.81,0,0,1,308.2,207.52Z" style="fill:#0077FF"></path><path d="M314.56,207a7.24,7.24,0,0,1-3.12,4.54c-.74.48-1-.52-.3-1a5.5,5.5,0,0,0,2.13-2.88c.05-.19.11-.4.14-.59a4,4,0,0,0-.05-2,1.23,1.23,0,0,0-.51-.67.18.18,0,0,1-.06,0s-.09,0-.1,0h-.16a.94.94,0,0,0-.56.09,2.36,2.36,0,0,0-.89.68,5.24,5.24,0,0,0-.72,1.15,6.09,6.09,0,0,0-.3.63l0,.15a.9.9,0,0,0-.08.21c0,.05-.05.1,0,.14l-1.15.1a8.39,8.39,0,0,1,.93-2.1,4.44,4.44,0,0,1,2.95-2.25,1.8,1.8,0,0,1,2,1.51A4.81,4.81,0,0,1,314.56,207Z" style="fill:#0077FF"></path><path d="M320.92,206.44A7.2,7.2,0,0,1,317.8,211c-.74.48-1-.51-.3-1a5.41,5.41,0,0,0,2.13-2.88c.05-.19.11-.4.14-.59a3.8,3.8,0,0,0,0-2,1.22,1.22,0,0,0-.51-.68l-.06,0s-.08,0-.1,0h-.16a1,1,0,0,0-.56.09,2.36,2.36,0,0,0-.89.68,4.7,4.7,0,0,0-.71,1.16,5.27,5.27,0,0,0-.31.63l0,.14a.9.9,0,0,0-.08.21c0,.05-.05.1,0,.15l-1.15.09a8.39,8.39,0,0,1,.93-2.1,4.45,4.45,0,0,1,2.95-2.24,1.79,1.79,0,0,1,2,1.5A4.81,4.81,0,0,1,320.92,206.44Z" style="fill:#0077FF"></path><path d="M327.28,205.91a7.23,7.23,0,0,1-3.12,4.54c-.74.48-1-.52-.3-1A5.34,5.34,0,0,0,326,206.6c.05-.19.11-.41.14-.6a3.7,3.7,0,0,0-.05-2,1.29,1.29,0,0,0-.51-.68l-.06,0s-.08,0-.1,0a.53.53,0,0,1-.15,0,1,1,0,0,0-.57.1,2.17,2.17,0,0,0-.88.68,4.69,4.69,0,0,0-.72,1.15c-.12.19-.2.41-.31.63l0,.14a1,1,0,0,0-.08.22s-.05.09,0,.14l-1.15.1a8.6,8.6,0,0,1,.93-2.1,4.44,4.44,0,0,1,3-2.25,1.79,1.79,0,0,1,2,1.51A4.69,4.69,0,0,1,327.28,205.91Z" style="fill:#0077FF"></path><path d="M333.64,205.37a7.2,7.2,0,0,1-3.12,4.54c-.74.48-1-.52-.3-1a5.34,5.34,0,0,0,2.13-2.87c0-.19.11-.4.14-.59a3.85,3.85,0,0,0,0-2,1.3,1.3,0,0,0-.52-.67.18.18,0,0,1-.06-.05s-.08,0-.1,0h-.15a1,1,0,0,0-.57.09,2.26,2.26,0,0,0-.88.68,4.89,4.89,0,0,0-.72,1.15c-.12.2-.2.41-.31.63l0,.14a1.19,1.19,0,0,0-.08.22s0,.1,0,.14l-1.15.1a8.77,8.77,0,0,1,.93-2.1,4.44,4.44,0,0,1,2.95-2.25,1.79,1.79,0,0,1,2,1.51A4.69,4.69,0,0,1,333.64,205.37Z" style="fill:#0077FF"></path><path d="M340,204.83a7.26,7.26,0,0,1-3.13,4.54c-.74.48-1-.52-.3-1a5.36,5.36,0,0,0,2.13-2.88,4.2,4.2,0,0,0,.14-.59,3.8,3.8,0,0,0,0-2,1.23,1.23,0,0,0-.52-.68.14.14,0,0,1-.05,0s-.09,0-.11,0H338a1.06,1.06,0,0,0-.57.09,2.33,2.33,0,0,0-.88.68,4.89,4.89,0,0,0-.72,1.15c-.12.2-.2.42-.31.63l0,.15a.9.9,0,0,0-.08.21s-.05.1,0,.15l-1.16.09a8.77,8.77,0,0,1,.93-2.1,4.39,4.39,0,0,1,3-2.24,1.78,1.78,0,0,1,1.95,1.5A4.68,4.68,0,0,1,340,204.83Z" style="fill:#0077FF"></path><path d="M346.37,204.3a7.26,7.26,0,0,1-3.13,4.53c-.74.49-1-.51-.3-1a5.34,5.34,0,0,0,2.13-2.87,4.34,4.34,0,0,0,.14-.6,3.81,3.81,0,0,0,0-2,1.31,1.31,0,0,0-.52-.68.14.14,0,0,1,0,0s-.09,0-.11,0a.58.58,0,0,1-.15,0,1,1,0,0,0-.57.1,2.3,2.3,0,0,0-.88.67,5.07,5.07,0,0,0-.72,1.16c-.12.19-.2.41-.31.63l0,.14a.6.6,0,0,0-.09.22.32.32,0,0,0,0,.14l-1.16.1a8.6,8.6,0,0,1,.93-2.1,4.43,4.43,0,0,1,3-2.25,1.79,1.79,0,0,1,2,1.51A4.81,4.81,0,0,1,346.37,204.3Z" style="fill:#0077FF"></path><path d="M352.73,203.76a7.22,7.22,0,0,1-3.13,4.54c-.74.48-1-.52-.3-1a5.41,5.41,0,0,0,2.14-2.87,4.49,4.49,0,0,0,.13-.59,3.85,3.85,0,0,0,0-2,1.31,1.31,0,0,0-.52-.68.14.14,0,0,1-.05,0s-.09,0-.1,0h-.16a1,1,0,0,0-.57.09,2.33,2.33,0,0,0-.88.68,5,5,0,0,0-.72,1.15,6.09,6.09,0,0,0-.3.63l0,.14a.74.74,0,0,0-.08.22c0,.05-.05.1,0,.14l-1.16.1a8.6,8.6,0,0,1,.93-2.1,4.48,4.48,0,0,1,3-2.25,1.8,1.8,0,0,1,2,1.51A4.81,4.81,0,0,1,352.73,203.76Z" style="fill:#0077FF"></path><path d="M359.09,203.22a7.22,7.22,0,0,1-3.13,4.54c-.74.48-1-.52-.3-1a5.43,5.43,0,0,0,2.14-2.88c.05-.19.11-.4.14-.59a4,4,0,0,0-.05-2,1.25,1.25,0,0,0-.52-.67l-.05,0s-.09,0-.1,0h-.16a1.07,1.07,0,0,0-.57.09,2.33,2.33,0,0,0-.88.68,5.24,5.24,0,0,0-.72,1.15c-.12.2-.2.42-.3.63l0,.15a.9.9,0,0,0-.08.21.28.28,0,0,0,0,.15l-1.15.09a8,8,0,0,1,.93-2.1,4.44,4.44,0,0,1,3-2.25,1.81,1.81,0,0,1,2,1.51A4.81,4.81,0,0,1,359.09,203.22Z" style="fill:#0077FF"></path><path d="M365.45,202.69a7.25,7.25,0,0,1-3.12,4.53c-.74.48-1-.51-.3-1a5.42,5.42,0,0,0,2.13-2.88c0-.19.11-.4.14-.59a3.91,3.91,0,0,0-.05-2,1.3,1.3,0,0,0-.51-.68l-.06,0s-.09,0-.1,0a.62.62,0,0,1-.16,0,1,1,0,0,0-.56.1,2.26,2.26,0,0,0-.89.67,5.07,5.07,0,0,0-.72,1.16,5.25,5.25,0,0,0-.3.63l0,.14a.83.83,0,0,0-.08.22s-.05.09,0,.14l-1.15.1a8.24,8.24,0,0,1,.93-2.1,4.44,4.44,0,0,1,2.95-2.25,1.79,1.79,0,0,1,2,1.51A4.81,4.81,0,0,1,365.45,202.69Z" style="fill:#0077FF"></path><path d="M368.68,219.51c5.31,9.66,17.91,21.31,19.36,29.37a9.39,9.39,0,0,1-4.63,10.21s8.34,3.57,8.45,11.1c.06,3.88-6.08,7.38-6.08,7.38s6.56,3.15,6.24,9.85c-.25,5.34-6.37,8.05-6.37,8.05s4.89,5.95,2.88,11.31c-4,10.87-49.89,13.57-58-2.9-3.76-7.68,7.47-7.73,7.47-7.73s-16.17-3.83-17-13.26,13.8-8.62,13.8-8.62-15.63-3.85-15.47-13.71c.17-10.28,14.63-7,14.63-7s-10.6-6.31-8.75-13.83c3.06-12.43,23.26,1.78,33.19-1.2l4.59-16.93Z" style="fill: rgb(235, 148, 129);"></path><path d="M378.72,233.4c-4.22-9.58,7.21-22.4,4.49-32.15-3.68-13.19-17.95.79-20.15,20.39l1,15.51Z" style="fill: rgb(235, 148, 129);"></path><path d="M384.75,296a.12.12,0,0,1,.06.23c-14.86,4.56-32.59,5-47.39,0-.48-.17-.42-1,.15-1C353.81,297.58,368.42,298.32,384.75,296Z" style="fill:#263238"></path><path d="M386,277.65c.17,0,.22.27,0,.32-15.34,4.62-35.31,4.58-51.68-3.26-.56-.26-.8-1.07-.13-.81C345.51,278.29,371.32,279.78,386,277.65Z" style="fill:#263238"></path><path d="M333,252.66c16,6.9,32.58,8,49.79,6.66.22,0,.22.3,0,.36-8.24,2.95-19.29,2.65-27.88,1.7a46,46,0,0,1-22.19-8.16C332.51,253,332.67,252.51,333,252.66Z" style="fill:#263238"></path></g><g id="freepik--table-2--inject-68"><rect x="209.6" y="443.45" width="8.4" height="1.48" style="fill:#455a64"></rect><polygon points="222.55 465.06 221.65 465.06 214.25 430.53 213.83 428.56 212.5 422.36 212 420.05 210.14 411.37 209.49 408.33 212.72 408.33 213.25 411.37 213.59 413.37 213.83 414.69 215.15 422.36 215.58 424.83 222.55 465.06" style="fill:#455a64"></polygon><polygon points="212.72 408.33 213.25 411.37 210.14 411.37 209.49 408.33 212.72 408.33" style="fill:#263238"></polygon><polygon points="215.58 424.83 214.25 430.53 213.83 428.56 212.5 422.36 212 420.05 213.59 413.37 213.83 414.69 215.15 422.36 215.58 424.83" style="fill:#263238"></polygon><polygon points="218.16 408.33 217.51 411.37 215.15 422.36 213.83 428.56 206 465.06 205.1 465.06 212.5 422.36 213.83 414.69 214.4 411.37 214.93 408.33 218.16 408.33" style="fill:#455a64"></polygon><polygon points="218.16 408.33 217.51 411.37 214.4 411.37 214.93 408.33 218.16 408.33" style="fill:#263238"></polygon><rect x="281.95" y="443.45" width="8.4" height="1.48" style="fill:#455a64"></rect><polygon points="294.9 465.06 293.99 465.06 286.6 430.53 286.17 428.56 284.85 422.36 284.35 420.05 282.49 411.37 281.84 408.33 285.07 408.33 285.6 411.37 285.94 413.37 286.17 414.69 287.5 422.36 287.93 424.83 294.9 465.06" style="fill:#455a64"></polygon><polygon points="285.07 408.33 285.6 411.37 282.49 411.37 281.84 408.33 285.07 408.33" style="fill:#263238"></polygon><polygon points="287.93 424.83 286.6 430.53 286.17 428.56 284.85 422.36 284.35 420.05 285.94 413.37 286.17 414.69 287.5 422.36 287.93 424.83" style="fill:#263238"></polygon><polygon points="290.5 408.33 289.86 411.37 287.5 422.36 286.17 428.56 278.35 465.06 277.45 465.06 284.85 422.36 286.17 414.69 286.75 411.37 287.27 408.33 290.5 408.33" style="fill:#455a64"></polygon><polygon points="290.5 408.33 289.86 411.37 286.75 411.37 287.27 408.33 290.5 408.33" style="fill:#263238"></polygon><rect x="203.2" y="406.11" width="93.6" height="2.22" style="fill:#455a64"></rect><rect x="200.17" y="401.87" width="99.65" height="4.24" style="fill:#37474f"></rect><polygon points="264.04 401.87 246.76 401.87 246.76 400.53 264.04 399.97 264.04 401.87" style="fill:#455a64"></polygon><path d="M277.62,401.85h-11.4c-1,0,.44-2.77,4-3.84S278.74,400.81,277.62,401.85Z" style="fill:#37474f"></path><path d="M273.15,401.85a2.2,2.2,0,0,1,2-3,23.2,23.2,0,0,1-2,3Z" style="fill:#263238"></path><path d="M274.5,399.21a3.17,3.17,0,0,1,2.94,1.45,1.36,1.36,0,0,1,.18,1.19,3.33,3.33,0,0,0-.77-.67,9.86,9.86,0,0,1-2.35-2Z" style="fill:#263238"></path><polygon points="285.81 396.49 258.09 396.49 262.5 375.85 290.21 375.85 285.81 396.49" style="fill:#455a64"></polygon><polygon points="286.83 396.49 259.12 396.49 263.52 375.85 291.24 375.85 286.83 396.49" style="fill:#37474f"></polygon><polygon points="271.88 389.09 271.23 389.09 272.22 384.46 272.87 384.46 271.88 389.09" style="fill:#263238"></polygon><polygon points="273.17 389.09 272.52 389.09 273.5 384.46 274.15 384.46 273.17 389.09" style="fill:#263238"></polygon><polygon points="274.45 389.09 273.8 389.09 274.79 384.46 275.44 384.46 274.45 389.09" style="fill:#263238"></polygon><polygon points="275.73 389.09 275.08 389.09 276.07 384.46 276.72 384.46 275.73 389.09" style="fill:#263238"></polygon><polygon points="277.01 389.09 276.36 389.09 277.35 384.46 278 384.46 277.01 389.09" style="fill:#263238"></polygon><polygon points="278.3 389.09 277.64 389.09 278.63 384.46 279.28 384.46 278.3 389.09" style="fill:#263238"></polygon><polygon points="279.58 389.09 278.93 389.09 279.91 384.46 280.56 384.46 279.58 389.09" style="fill:#263238"></polygon><polygon points="278.99 401.87 265.36 401.87 265.36 400.81 278.99 400.37 278.99 401.87" style="fill:#455a64"></polygon><polygon points="282.7 401.87 275.38 401.87 270.97 390.31 278.29 390.31 282.7 401.87" style="fill:#455a64"></polygon><polygon points="283.9 401.87 276.58 401.87 272.18 390.31 279.5 390.31 283.9 401.87" style="fill:#263238"></polygon></g></svg>