<svg width="400" height="650" viewBox="0 0 400 650" fill="none" xmlns="http://www.w3.org/2000/svg">
<rect width="400" height="650" fill="#1E1E1E"/>
<path d="M66.5516 659.179C64.4884 669.108 59.5882 678.199 51.851 686.452C44.1138 694.705 35.5384 695.157 26.1248 687.806C16.7113 680.456 9.1675 674.653 3.49356 670.398C-2.18038 666.142 -13.2703 660.726 -29.7763 654.149C-46.2823 647.573 -50.9247 637.579 -43.7033 624.168C-36.4819 610.757 -25.4564 605.083 -10.6268 607.146C4.2028 609.209 16.3889 606.759 25.9314 599.796C35.4739 592.832 47.3376 591.22 61.5225 594.96C75.7073 598.7 80.6075 607.855 76.2231 622.427C71.8387 636.999 68.6149 649.249 66.5516 659.179Z" fill="#7F7FFF"/>
<path d="M348.532 632.807C344.142 638.294 342.825 644.165 344.581 650.42C346.337 656.676 349.629 662.931 354.458 669.187C359.286 675.442 365.377 676.649 372.73 672.808C380.083 668.967 385.241 663.864 388.204 657.499C391.167 651.134 398.959 650.256 411.579 654.865C424.2 659.474 428.919 657.06 425.736 647.622C422.554 638.184 420.523 630.612 419.645 624.905C418.767 619.198 418.219 613.053 417.999 606.468C417.78 599.883 414.378 595.823 407.793 594.286C401.209 592.75 395.666 589.074 391.167 583.257C386.667 577.441 380.906 574.697 373.882 575.026C366.859 575.356 361.92 579.197 359.067 586.55C356.214 593.902 351.714 598.896 345.568 601.53C339.423 604.163 339.478 608.663 345.733 615.028C351.988 621.393 352.921 627.319 348.532 632.807Z" fill="#FFE874"/>
<path d="M0 0H400V650H0V0Z" fill="#FFE874"/>
<path fill-rule="evenodd" clip-rule="evenodd" d="M400 157.098C394.305 156.439 388.899 156.541 383.782 157.404C375.165 158.858 366.081 161.152 356.53 164.288C346.979 167.424 342.001 174.024 341.596 184.087C341.192 194.151 343.731 202.539 349.216 209.253C354.7 215.967 360.093 222.685 365.395 229.406C370.697 236.128 377.508 238.494 385.828 236.505C390.675 235.346 395.399 233.836 400 231.975V157.098Z" fill="#FF7FFF"/>
</svg>
