<svg xmlns="http://www.w3.org/2000/svg" xmlns:xlink="http://www.w3.org/1999/xlink" viewBox="0 0 64 64"><defs><style>.cls-1{fill:url(#linear-gradient);}.cls-2{fill:url(#linear-gradient-2);}.cls-3{fill:url(#linear-gradient-3);}.cls-4{fill:#b4cde1;}.cls-5{fill:url(#linear-gradient-4);}.cls-6{fill:#eb7f58;}</style><linearGradient id="linear-gradient" x1="32" y1="57.02" x2="32" y2="19" gradientUnits="userSpaceOnUse"><stop offset="0" stop-color="#54a5ff"/><stop offset="1" stop-color="#8ad3fe"/></linearGradient><linearGradient id="linear-gradient-2" x1="11" y1="34.5" x2="32" y2="34.5" gradientUnits="userSpaceOnUse"><stop offset="0" stop-color="#d3e6f5"/><stop offset="1" stop-color="#f0f7fc"/></linearGradient><linearGradient id="linear-gradient-3" x1="32" x2="53" xlink:href="#linear-gradient-2"/><linearGradient id="linear-gradient-4" x1="43" y1="40" x2="43" y2="7" gradientUnits="userSpaceOnUse"><stop offset="0" stop-color="#fe9661"/><stop offset="1" stop-color="#ffb369"/></linearGradient></defs><title>Homework</title><g id="Homework"><path class="cls-1" d="M53,19h2a2,2,0,0,1,2,2V52a2,2,0,0,1-2,2H38.8A3.36,3.36,0,0,0,36,55.5c-1.2,1.82-3,1.5-5.2,1.5-3.07,0-2.53-3-5.6-3H9a2,2,0,0,1-2-2V21a2,2,0,0,1,2-2h2"/><path class="cls-2" d="M32,19V53a6.75,6.75,0,0,0-5.61-3H13a2,2,0,0,1-2-2V18a2,2,0,0,1,2-2H26.39A6.75,6.75,0,0,1,32,19Z"/><path class="cls-3" d="M46,16h5a2,2,0,0,1,2,2V48a2,2,0,0,1-2,2H37.61A6.75,6.75,0,0,0,32,53V19c2.17-3.25,5.17-3,8-3"/><path class="cls-4" d="M27,44H26V39a1,1,0,0,0-2,0v5H22V38a1,1,0,0,0-2,0v6H18V41a1,1,0,0,0-2,0v3H15a1,1,0,0,0,0,2H27A1,1,0,0,0,27,44Z"/><path class="cls-4" d="M27,23H18a1,1,0,0,1,0-2h9A1,1,0,0,1,27,23Z"/><path class="cls-4" d="M27,28H16a1,1,0,0,1,0-2H27A1,1,0,0,1,27,28Z"/><path class="cls-4" d="M25,33H16a1,1,0,0,1,0-2h9A1,1,0,0,1,25,33Z"/><path class="cls-5" d="M46,35l-3,5-3-5V9a2,2,0,0,1,2-2h2a2,2,0,0,1,2,2Z"/><path class="cls-4" d="M46,35a5,5,0,0,0-6,0l3,5Z"/><rect class="cls-6" x="40" y="14" width="6" height="4"/></g></svg>