<?xml version="1.0" encoding="UTF-8"?>
<svg xmlns="http://www.w3.org/2000/svg" xml:space="preserve" width="7.11111in" height="7.11111in" version="1.1" style="shape-rendering:geometricPrecision; text-rendering:geometricPrecision; image-rendering:optimizeQuality; fill-rule:evenodd; clip-rule:evenodd"
viewBox="0 0 7111 7111"
 xmlns:xlink="http://www.w3.org/1999/xlink">
 <defs>
  <style type="text/css">
   <![CDATA[
    .fil0 {fill:white}
   ]]>
  </style>
 </defs>
 <g id="Layer_x0020_1">
  <metadata id="CorelCorpID_0Corel-Layer"/>
  <g id="_412126904">
   <g>
    <g>
     <path class="fil0" d="M6332 6261c-54,0 -97,-43 -97,-97l0 -5968 -4391 0 0 5968c0,54 -43,97 -97,97 -55,0 -98,-43 -98,-97l0 -6065c0,-55 43,-98 98,-98l4585 0c54,0 97,43 97,98l0 6065c0,54 -44,97 -97,97z"/>
    </g>
    <g>
     <path class="fil0" d="M6332 7110l-5128 0c-288,0 -522,-234 -522,-521 0,-287 234,-522 522,-522l5128 0c54,0 97,43 97,97l0 10c0,46 -31,85 -76,94 -150,34 -258,168 -258,320 0,152 108,287 257,319 44,10 76,49 76,94l0 10c1,56 -43,99 -96,99zm-5128 -849c-181,0 -328,148 -328,328 0,181 147,326 328,326l4812 0c-74,-90 -117,-205 -117,-326 0,-122 43,-237 117,-328l-4812 0z"/>
    </g>
    <g>
     <path class="fil0" d="M779 6686c-54,0 -97,-43 -97,-97l0 -5614c0,-538 437,-974 973,-974l92 0c54,0 97,43 97,98 0,54 -43,97 -97,97l-92 0c-429,0 -779,350 -779,779l0 5614c0,54 -43,97 -97,97z"/>
    </g>
    <g>
     <path class="fil0" d="M1190 5934c-54,0 -97,-43 -97,-97l0 -4862c0,-171 68,-332 190,-453 37,-37 100,-37 137,1 38,38 38,100 -1,138 -85,85 -132,196 -132,315l0 4862c0,51 -44,96 -97,96z"/>
    </g>
    <g>
     <path class="fil0" d="M6332 7110l-5128 0c-288,0 -522,-234 -522,-521 0,-287 234,-522 522,-522l5128 0c54,0 97,43 97,97l0 10c0,46 -31,85 -76,94 -150,34 -258,168 -258,320 0,152 108,287 257,319 44,10 76,49 76,94l0 10c1,56 -43,99 -96,99zm-5128 -849c-181,0 -328,148 -328,328 0,181 147,326 328,326l4812 0c-74,-90 -117,-205 -117,-326 0,-122 43,-237 117,-328l-4812 0z"/>
    </g>
    <g>
     <path class="fil0" d="M6003 6686l-4580 0c-54,0 -97,-43 -97,-97 0,-54 43,-97 97,-97l4580 0c54,0 97,43 97,97 0,54 -43,97 -97,97z"/>
    </g>
    <g>
     <g>
      <g>
       <path class="fil0" d="M5691 4534l-3415 0c-55,0 -98,-43 -98,-97 0,-54 43,-97 98,-97l3415 0c54,0 97,43 97,97 0,54 -43,97 -97,97z"/>
      </g>
      <g>
       <path class="fil0" d="M5691 5034l-3415 0c-55,0 -98,-43 -98,-97 0,-54 43,-97 98,-97l3415 0c54,0 97,43 97,97 0,54 -43,97 -97,97z"/>
      </g>
      <g>
       <path class="fil0" d="M5691 5534l-3415 0c-55,0 -98,-43 -98,-97 0,-54 43,-97 98,-97l3415 0c54,0 97,43 97,97 0,54 -43,97 -97,97z"/>
      </g>
     </g>
     <g>
      <g>
       <path class="fil0" d="M5259 3946l-2553 0c-54,0 -97,-43 -97,-98l0 -1529 -279 0c-41,0 -78,-25 -92,-64 -14,-39 -3,-82 29,-109l1659 -1395c36,-30 89,-30 125,0l1647 1395c30,27 43,70 28,109 -14,39 -50,64 -92,64l-279 0 0 1529c1,55 -42,98 -96,98zm-2456 -195l2359 0 0 -1530c0,-54 43,-97 97,-97l111 0 -1381 -1172 -1391 1172 109 0c54,0 97,43 97,97l0 1530 -1 0z"/>
      </g>
      <g>
       <path class="fil0" d="M4483 3946l-1001 0c-54,0 -97,-43 -97,-98l0 -769c0,-281 229,-509 511,-509l175 0c281,0 509,229 509,509l0 769c0,55 -43,98 -97,98zm-904 -195l807 0 0 -672c0,-173 -142,-315 -315,-315l-175 0c-175,0 -317,142 -317,315l0 672z"/>
      </g>
     </g>
    </g>
   </g>
  </g>
 </g>
</svg>
